<svg width="132" height="132" viewBox="0 0 132 132" fill="none" xmlns="http://www.w3.org/2000/svg">
<path d="M27.3799 69.854C27.3799 69.854 23.0594 74.9669 19.5237 79.1142C18.2645 80.5925 17.4716 82.4107 17.2451 84.3393C16.8522 87.8229 16.2487 94.7302 17.1476 100.127C17.682 102.69 18.4546 105.198 19.4551 107.618C19.8209 108.509 20.0071 109.463 20.0031 110.426V118.208H44.2621V107.152C44.2621 107.152 50.1247 100.885 45.2728 92.1926V75.211L27.3799 69.854Z" fill="#FFD5BD"/>
<path d="M45.2703 92.1922V90.6553H28.4648L33.6821 104.143C40.3 103.422 40.4112 97.8274 40.4112 97.8274H47.1221C46.8984 95.8417 46.268 93.9235 45.2703 92.1922Z" fill="#E58E6C"/>
<path d="M34.7914 26.3306C34.7914 26.3306 26.2969 26.7391 26.2969 36.6311V88.0546L34.7914 82.2497V26.3306Z" fill="#4E73A8"/>
<path d="M32.1017 82.2502C30.5814 82.2502 29.1217 82.8467 28.0365 83.9114C26.9512 84.9761 26.327 86.4241 26.2979 87.9442C26.2371 91.1974 29.0002 93.8592 32.2538 93.8592H72.7488C72.801 93.8594 72.8517 93.8421 72.8929 93.8101C72.9341 93.7782 72.9634 93.7333 72.9761 93.6827C72.9888 93.6321 72.9842 93.5788 72.9631 93.5311C72.9419 93.4834 72.9054 93.4442 72.8593 93.4198C71.5902 92.7623 69.6743 91.2423 69.6743 88.0543C69.6743 83.2885 73.9575 82.2495 73.9575 82.2495L32.1017 82.2502Z" fill="#EAF5FF"/>
<path d="M73.9548 82.2497H34.7891V26.3306H73.0396C73.2823 26.3306 73.5151 26.427 73.6868 26.5986C73.8584 26.7703 73.9548 27.003 73.9548 27.2458V82.2497Z" fill="#88B0EA"/>
<path d="M40.018 89.3549H69.7951C69.6371 88.4955 69.636 87.6146 69.7919 86.7549H40.018C38.3111 86.7832 38.3072 89.3256 40.018 89.3549Z" fill="#C9D4FF"/>
<path d="M22.9053 94.8712L23.2628 89.4079C23.6499 84.4319 27.5629 81.9329 32.1113 79.2065C32.4632 79.0135 32.8516 78.8959 33.2515 78.8613C33.6515 78.8267 34.0542 78.8759 34.4341 79.0057C34.814 79.1355 35.1626 79.343 35.4578 79.6151C35.753 79.8872 35.9882 80.2178 36.1484 80.5858C37.0584 82.7451 37.2385 86.1433 33.0369 90.1684C33.0369 90.1684 37.3269 93.3573 36.7468 101C36.6631 102.162 36.1419 103.249 35.2884 104.041C34.4349 104.834 33.3125 105.274 32.1477 105.271C26.9643 105.526 22.4305 100.8 22.9053 94.8712Z" fill="#FFD5BD"/>
<path d="M109.857 14.1431L68.6145 14.276C67.188 14.2806 65.8218 14.8515 64.8162 15.8632C63.8106 16.8749 63.2479 18.2446 63.252 19.671L63.3771 58.501C63.3794 59.2075 63.5207 59.9066 63.7932 60.5585C64.0656 61.2103 64.4638 61.8021 64.965 62.3C65.4661 62.798 66.0604 63.1924 66.714 63.4606C67.3676 63.7289 68.0676 63.8658 68.774 63.8635L89.3943 63.7969L89.4421 78.5948L104.173 63.7495L110.015 63.7306C110.721 63.7285 111.421 63.5871 112.072 63.3147C112.724 63.0423 113.316 62.6442 113.814 62.1431C114.312 61.6419 114.706 61.0476 114.975 60.394C115.243 59.7405 115.38 59.0405 115.377 58.334L115.254 19.5056C115.252 18.7991 115.11 18.1 114.838 17.4482C114.565 16.7963 114.167 16.2045 113.666 15.7066C113.165 15.2086 112.571 14.8143 111.917 14.546C111.263 14.2777 110.563 14.1408 109.857 14.1431Z" fill="#FFD071"/>
<path d="M105.659 39.2384C105.659 41.4257 105.228 43.5916 104.391 45.6123C103.554 47.6331 102.327 49.4692 100.78 51.0158C99.2335 52.5625 97.3974 53.7893 95.3766 54.6263C93.3558 55.4633 91.19 55.8941 89.0027 55.894C66.9547 55.1322 66.9602 23.3414 89.0027 22.5815C91.1901 22.5815 93.356 23.0123 95.3769 23.8494C97.3978 24.6865 99.234 25.9134 100.781 27.4602C102.327 29.007 103.554 30.8432 104.391 32.8641C105.228 34.8851 105.659 37.0511 105.659 39.2384Z" fill="white"/>
<path d="M89.4449 79.8954C89.1014 79.8937 88.7724 79.7567 88.529 79.5142C88.2857 79.2717 88.1477 78.9431 88.1449 78.5996L88.1014 65.1017C88.0828 65.1062 68.7765 65.1608 68.759 65.1641C65.1775 65.2369 62.0172 62.0889 62.0802 58.5058L61.9551 19.6761C61.9522 18.7989 62.1221 17.9298 62.4552 17.1183C62.7882 16.3068 63.2778 15.5688 63.8961 14.9466C64.5144 14.3243 65.2492 13.83 66.0585 13.4917C66.8678 13.1535 67.7359 12.978 68.6131 12.9753L109.854 12.843C113.443 12.7578 116.618 15.9097 116.555 19.5009L116.68 58.331C116.684 60.1018 115.985 61.8018 114.737 63.058C113.489 64.3142 111.793 65.0241 110.022 65.0318L104.72 65.0487L90.3679 79.5112C90.247 79.633 90.1032 79.7296 89.9448 79.7956C89.7864 79.8615 89.6165 79.8954 89.4449 79.8954ZM89.3975 62.4975C89.7409 62.4995 90.0698 62.6366 90.3131 62.8791C90.5563 63.1216 90.6944 63.4501 90.6975 63.7936L90.7348 75.45L103.254 62.8342C103.374 62.7129 103.517 62.6165 103.675 62.5506C103.832 62.4847 104.001 62.4505 104.172 62.45L110.014 62.4312C111.095 62.4264 112.131 61.9929 112.893 61.2256C113.655 60.4583 114.082 59.42 114.08 58.3384L113.955 19.5084C113.946 18.4282 113.511 17.3952 112.745 16.6339C111.979 15.8727 110.943 15.4447 109.862 15.443L68.6215 15.5759C68.0858 15.5776 67.5558 15.6848 67.0615 15.8914C66.5673 16.098 66.1185 16.3999 65.741 16.7798C65.3634 17.1598 65.0644 17.6105 64.861 18.106C64.6575 18.6016 64.5537 19.1323 64.5554 19.668L64.6802 58.498C64.6889 59.576 65.1219 60.6072 65.8854 61.3682C66.6488 62.1293 67.6813 62.5591 68.7593 62.5644C68.771 62.5755 89.3838 62.4893 89.3975 62.4975Z" fill="#383A49"/>
<path d="M89.001 57.1941C79.3736 57.3921 70.879 48.9258 71.0474 39.2957C70.8937 23.4682 90.5295 15.2568 101.658 26.5011C111.348 35.775 106.954 52.8869 94.0675 56.4691C93.903 56.5192 93.7303 56.5363 93.5592 56.5193C93.3882 56.5023 93.2222 56.4515 93.0709 56.3699C92.9196 56.2883 92.786 56.1775 92.6778 56.0439C92.5696 55.9103 92.489 55.7566 92.4406 55.5916C92.3922 55.4267 92.377 55.2538 92.3958 55.0829C92.4147 54.9121 92.4673 54.7466 92.5505 54.5962C92.6338 54.4458 92.746 54.3134 92.8808 54.2067C93.0155 54.0999 93.1701 54.021 93.3356 53.9744C104.353 50.9106 108.114 36.2755 99.8258 28.3452C90.3079 18.7304 73.5148 25.7523 73.6474 39.2879C73.5174 47.058 80.0236 54.0709 87.7563 54.5444V52.986C87.7852 51.2778 90.3274 51.2769 90.3563 52.986V55.8938C90.3559 56.0691 90.3202 56.2426 90.2513 56.4038C90.1824 56.5651 90.0816 56.7107 89.9551 56.8321C89.8286 56.9535 89.6789 57.0481 89.515 57.1103C89.351 57.1725 89.1762 57.201 89.001 57.1941Z" fill="#383A49"/>
<path d="M44.1909 119.508H19.9316C19.5869 119.508 19.2562 119.371 19.0124 119.128C18.7686 118.884 18.6316 118.553 18.6316 118.208C18.4997 116.388 19.0109 109.688 18.1835 108.117C16.4574 103.666 15.9488 101.653 15.5399 98.6116C15.057 93.1896 15.4609 87.7744 15.8847 84.1861C16.1397 82.0023 17.0378 79.9436 18.4649 78.2711C20.9089 75.4043 23.7299 72.0756 25.235 70.2953C26.3543 69.021 28.3056 70.6391 27.2198 71.9749C25.7118 73.7569 22.8898 77.0881 20.4435 79.9579C19.3497 81.24 18.6616 82.8183 18.4665 84.4923C18.0538 88.2064 17.5068 94.6024 18.3508 99.8667C18.8683 102.348 19.6159 104.776 20.5839 107.119C21.0168 108.168 21.2369 109.292 21.2316 110.426V116.908H42.8909V107.152C42.8909 106.822 43.0163 106.505 43.2416 106.264C44.7267 104.452 45.6184 102.227 45.7958 99.8904C45.9489 98.193 48.4826 98.3675 48.389 100.076C48.1811 102.821 47.1736 105.446 45.4909 107.624V118.208C45.4909 118.553 45.354 118.884 45.1102 119.128C44.8664 119.371 44.5357 119.508 44.1909 119.508Z" fill="#383A49"/>
<path d="M26.2277 84.6457C25.883 84.6457 25.5523 84.5087 25.3085 84.2649C25.0647 84.0211 24.9277 83.6904 24.9277 83.3457V36.6315C24.9277 25.6276 34.5624 25.0377 34.6595 25.0329C34.8352 25.0256 35.0104 25.0537 35.1749 25.1157C35.3394 25.1777 35.4897 25.2721 35.6169 25.3935C35.7441 25.5148 35.8455 25.6605 35.9151 25.8219C35.9846 25.9833 36.021 26.1571 36.0219 26.3329V72.7689C35.9956 74.4644 33.4544 74.4888 33.4219 72.7689V27.8779C31.3163 28.458 27.5277 30.371 27.5277 36.6315V83.3457C27.5277 83.5164 27.4941 83.6854 27.4288 83.8432C27.3634 84.0009 27.2677 84.1442 27.147 84.2649C27.0263 84.3856 26.8829 84.4814 26.7252 84.5467C26.5675 84.612 26.3985 84.6457 26.2277 84.6457Z" fill="#383A49"/>
<path d="M73.8862 95.1598H35.6809C35.3361 95.1598 35.0054 95.0229 34.7616 94.7791C34.5178 94.5353 34.3809 94.2046 34.3809 93.8598C34.3809 93.5151 34.5178 93.1844 34.7616 92.9406C35.0054 92.6968 35.3361 92.5598 35.6809 92.5598H69.7587C67.8432 90.3284 67.8442 85.7803 69.7587 83.5502H42.8611C41.1675 83.5274 41.1386 80.9794 42.8611 80.9502H73.8862C74.2042 80.9503 74.5112 81.0669 74.749 81.278C74.9868 81.4892 75.1389 81.7801 75.1767 82.0959C75.2144 82.4116 75.1352 82.7302 74.9538 82.9915C74.7725 83.2527 74.5017 83.4384 74.1927 83.5135C73.8641 83.5986 70.9031 84.4677 70.9031 88.055C70.9031 91.6424 73.8641 92.5114 74.2018 92.5988C75.6539 92.9726 75.3998 95.155 73.8862 95.1598Z" fill="#383A49"/>
<path d="M73.8859 83.55C73.5412 83.55 73.2105 83.413 72.9667 83.1692C72.7229 82.9254 72.5859 82.5948 72.5859 82.25V63.8479C72.5859 63.5031 72.7229 63.1724 72.9667 62.9286C73.2105 62.6848 73.5412 62.5479 73.8859 62.5479C74.2307 62.5479 74.5614 62.6848 74.8052 62.9286C75.049 63.1724 75.1859 63.5031 75.1859 63.8479V82.25C75.1859 82.5948 75.049 82.9254 74.8052 83.1692C74.5614 83.413 74.2307 83.55 73.8859 83.55Z" fill="#383A49"/>
<path d="M56.8995 27.6308H34.7205C33.0188 27.6035 33.0061 25.0603 34.7205 25.0308H56.8995C58.6018 25.0584 58.6142 27.6015 56.8995 27.6308Z" fill="#383A49"/>
<path d="M36.085 105.923C35.8882 105.922 35.6942 105.877 35.5173 105.791C35.3405 105.704 35.1855 105.579 35.0639 105.424C34.9424 105.269 34.8573 105.089 34.8152 104.897C34.7731 104.705 34.775 104.506 34.8208 104.314C37.0753 95.0912 32.3833 91.3603 32.1811 91.2059C32.032 91.0917 31.9093 90.9467 31.8212 90.7808C31.7332 90.6149 31.682 90.432 31.671 90.2445C31.66 90.057 31.6896 89.8694 31.7576 89.6944C31.8257 89.5193 31.9307 89.361 32.0654 89.2302C35.0164 86.4027 35.9631 83.6633 34.8786 81.0909C34.7879 80.8912 34.657 80.7123 34.4941 80.5654C34.3313 80.4185 34.1399 80.3067 33.9319 80.237C33.7239 80.1673 33.5038 80.1412 33.2853 80.1603C33.0668 80.1794 32.8545 80.2432 32.6618 80.3479C30.5073 81.511 28.5171 82.9553 26.7432 84.6428C25.4109 85.9202 24.6062 87.6509 24.488 89.4928L23.9921 97.1001C23.9696 97.4442 23.8114 97.7652 23.5522 97.9927C23.293 98.2201 22.9541 98.3353 22.61 98.3128C22.2659 98.2904 21.9449 98.1321 21.7174 97.8729C21.49 97.6138 21.3748 97.2748 21.3973 96.9308L21.8936 89.3235C22.0534 86.8336 23.1414 84.4942 24.9424 82.7676C26.8826 80.9201 29.0599 79.3389 31.417 78.0655C31.9343 77.7845 32.5045 77.6148 33.0912 77.5674C33.6779 77.52 34.2681 77.5959 34.8237 77.7902C38.8352 79.3954 39.1078 85.6065 34.8026 90.1457C36.4841 92.0532 39.3552 96.7156 37.3467 104.931C37.2777 105.214 37.1159 105.465 36.8872 105.645C36.6584 105.825 36.376 105.923 36.085 105.923Z" fill="#383A49"/>
<path d="M88.9484 26.6689C88.6037 26.6689 88.273 26.5319 88.0292 26.2881C87.7854 26.0443 87.6484 25.7137 87.6484 25.3689V22.5827C87.6774 20.8748 90.2195 20.8735 90.2484 22.5827V25.3689C90.2484 25.7137 90.1115 26.0443 89.8677 26.2881C89.6239 26.5319 89.2932 26.6689 88.9484 26.6689Z" fill="#383A49"/>
<path d="M74.9982 40.5922H72.3469C72.0021 40.5922 71.6714 40.4552 71.4276 40.2114C71.1838 39.9676 71.0469 39.637 71.0469 39.2922C71.0469 38.9474 71.1838 38.6167 71.4276 38.373C71.6714 38.1292 72.0021 37.9922 72.3469 37.9922H74.9982C76.7061 38.0211 76.7074 40.5633 74.9982 40.5922Z" fill="#383A49"/>
<path d="M105.658 40.4848H102.933C102.588 40.4848 102.257 40.3478 102.014 40.104C101.77 39.8602 101.633 39.5295 101.633 39.1848C101.633 38.84 101.77 38.5093 102.014 38.2655C102.257 38.0217 102.588 37.8848 102.933 37.8848H105.658C107.366 37.9137 107.367 40.4558 105.658 40.4848Z" fill="#383A49"/>
<path d="M92.6697 37.9268L90.2995 37.9343L90.2777 31.2556C90.2452 29.5496 87.7011 29.5532 87.6777 31.264L87.7034 39.2428C87.7045 39.5868 87.842 39.9164 88.0857 40.1593C88.3293 40.4022 88.6594 40.5385 89.0034 40.5385C89.007 40.5408 92.6694 40.5252 92.6736 40.5268C94.3789 40.4914 94.3763 37.9561 92.6697 37.9268Z" fill="#383A49"/>
</svg>
