<svg width="116" height="108" viewBox="0 0 116 108" fill="none" xmlns="http://www.w3.org/2000/svg">
<path d="M81.0653 82.1631L7.24278 82.1383C3.56328 82.1368 0.580532 79.1533 0.582032 75.4731L0.59553 34.0318C0.59703 30.3523 3.58053 27.3696 7.26078 27.3711L81.0833 27.3958C84.7635 27.3973 87.7455 30.3808 87.744 34.0611L87.7305 75.5023C87.729 79.1818 84.7448 82.1638 81.0653 82.1631Z" fill="#F6CA14"/>
<path d="M81.0641 80.8301L7.24158 80.8054C3.56208 80.8039 0.579331 77.8204 0.580831 74.1401L0.580079 75.4729C0.578579 79.1524 3.56133 82.1366 7.24083 82.1381L81.0633 82.1629C84.7428 82.1644 87.7271 79.1816 87.7286 75.5021L87.7293 74.1694C87.7286 77.8489 84.7443 80.8309 81.0641 80.8301Z" fill="#E7AD27"/>
<path d="M81.0823 27.3949L7.25975 27.3701C3.58025 27.3686 0.596 30.3514 0.5945 34.0309L0.59375 35.3636C0.59525 31.6834 3.57875 28.7014 7.259 28.7029L81.0815 28.7276C84.761 28.7291 87.7438 31.7126 87.7423 35.3929L87.743 34.0601C87.7445 30.3806 84.7625 27.3964 81.0823 27.3949Z" fill="#FFF235"/>
<path d="M87.7403 34.0459H0.591797V46.7479H87.7403V34.0459Z" fill="#E7AD27"/>
<path d="M78.8081 57.7431L8.41384 57.7198C7.14709 57.7198 6.12034 56.6923 6.12109 55.4256C6.12184 54.1588 7.1486 53.1321 8.41535 53.1328L78.8096 53.1561C80.0763 53.1568 81.1031 54.1836 81.1023 55.4503C81.1023 56.7171 80.0748 57.7438 78.8081 57.7431Z" fill="#FDDD3A"/>
<path d="M50.3874 68.5134L8.40994 68.4991C7.14319 68.4984 6.11644 67.4716 6.11719 66.2049C6.11794 64.9381 7.14469 63.9114 8.41144 63.9121L50.3889 63.9264C51.6557 63.9271 52.6824 64.9539 52.6817 66.2206C52.6809 67.4874 51.6542 68.5141 50.3874 68.5134Z" fill="#FDDD3A"/>
<path d="M108.757 107.823H34.9345C31.2542 107.823 28.2715 104.839 28.2715 101.16V59.7187C28.2715 56.0384 31.255 53.0557 34.9345 53.0557H108.757C112.437 53.0557 115.42 56.0384 115.42 59.7187V101.16C115.42 104.839 112.437 107.823 108.757 107.823Z" fill="#1CAEE4"/>
<path d="M108.757 106.49H34.9345C31.2542 106.49 28.2715 103.507 28.2715 99.8271V101.16C28.2715 104.84 31.255 107.823 34.9345 107.823H108.757C112.437 107.823 115.42 104.839 115.42 101.16V99.8271C115.42 103.507 112.437 106.49 108.757 106.49Z" fill="#009ADD"/>
<path d="M108.757 53.0547H34.9345C31.2542 53.0547 28.2715 56.0374 28.2715 59.7177V61.0504C28.2715 57.3709 31.255 54.3874 34.9345 54.3874H108.757C112.437 54.3874 115.42 57.3709 115.42 61.0504V59.7177C115.42 56.0382 112.437 53.0547 108.757 53.0547Z" fill="#27C1E6"/>
<path d="M45.0518 78.5498H37.9448C36.4725 78.5498 35.2793 77.3566 35.2793 75.8843V68.7773C35.2793 67.3051 36.4725 66.1118 37.9448 66.1118H45.0518C46.524 66.1118 47.7173 67.3051 47.7173 68.7773V75.8843C47.7165 77.3566 46.5233 78.5498 45.0518 78.5498Z" fill="#009ADD"/>
<path d="M45.0518 78.0166H37.9448C36.4725 78.0166 35.2793 76.8234 35.2793 75.3511V68.2441C35.2793 66.7719 36.4725 65.5786 37.9448 65.5786H45.0518C46.524 65.5786 47.7173 66.7719 47.7173 68.2441V75.3511C47.7165 76.8234 46.5233 78.0166 45.0518 78.0166Z" fill="#FDDD3A"/>
<path d="M44.1642 69.1333H38.834V74.4636H44.1642V69.1333Z" fill="#F6CA14"/>
<path d="M47.7165 69.1333H35.2793V69.6666H47.7165V69.1333Z" fill="#F6CA14"/>
<path d="M47.7165 73.9302H35.2793V74.4634H47.7165V73.9302Z" fill="#F6CA14"/>
<path d="M38.834 65.5791V78.0171H39.3672V65.5791H38.834Z" fill="#F6CA14"/>
<path d="M43.6328 65.5786V78.0166H44.1661V65.5786H43.6328Z" fill="#F6CA14"/>
<path d="M46.8974 91.8561H36.0982C34.8314 91.8561 33.8047 90.8293 33.8047 89.5626C33.8047 88.2958 34.8314 87.269 36.0982 87.269H46.8967C48.1634 87.269 49.1902 88.2958 49.1902 89.5626C49.1909 90.8293 48.1634 91.8561 46.8974 91.8561Z" fill="#FDDD3A"/>
<path d="M66.7639 91.8561H55.9654C54.6986 91.8561 53.6719 90.8293 53.6719 89.5626C53.6719 88.2958 54.6986 87.269 55.9654 87.269H66.7639C68.0306 87.269 69.0574 88.2958 69.0574 89.5626C69.0574 90.8293 68.0299 91.8561 66.7639 91.8561Z" fill="#FDDD3A"/>
<path d="M86.6279 91.8561H75.8287C74.5619 91.8561 73.5352 90.8293 73.5352 89.5626C73.5352 88.2958 74.5619 87.269 75.8287 87.269H86.6272C87.8939 87.269 88.9207 88.2958 88.9207 89.5626C88.9214 90.8293 87.8939 91.8561 86.6279 91.8561Z" fill="#FDDD3A"/>
<path d="M106.494 91.8561H95.6958C94.4291 91.8561 93.4023 90.8293 93.4023 89.5626C93.4023 88.2958 94.4291 87.269 95.6958 87.269H106.494C107.761 87.269 108.788 88.2958 108.788 89.5626C108.788 90.8293 107.76 91.8561 106.494 91.8561Z" fill="#FDDD3A"/>
<path d="M78.0776 100.563H36.1001C34.8334 100.563 33.8066 99.5358 33.8066 98.2691C33.8066 97.0023 34.8334 95.9756 36.1001 95.9756H78.0776C79.3444 95.9756 80.3711 97.0023 80.3711 98.2691C80.3711 99.5358 79.3444 100.563 78.0776 100.563Z" fill="#FDDD3A"/>
<path d="M107.897 71.7981C107.897 75.6644 104.763 78.7994 100.896 78.7994C97.0295 78.7994 93.8945 75.6651 93.8945 71.7981C93.8945 67.9311 97.0288 64.7969 100.896 64.7969C104.763 64.7969 107.897 67.9319 107.897 71.7981Z" fill="#FDDD3A"/>
<path d="M96.6666 71.7981C96.6666 75.6644 93.5323 78.7994 89.6653 78.7994C85.7983 78.7994 82.6641 75.6651 82.6641 71.7981C82.6641 67.9311 85.7983 64.7969 89.6653 64.7969C93.5316 64.7969 96.6666 67.9319 96.6666 71.7981Z" fill="#FDDD3A"/>
<path d="M35.541 27.3799C36.2393 39.1774 46.0275 48.5299 58.0005 48.5299C69.9683 48.5299 79.7535 39.1856 80.4593 27.3949L35.541 27.3799Z" fill="#E7AD27"/>
<path d="M58.002 45.5293C70.4284 45.5293 80.502 35.4557 80.502 23.0293C80.502 10.6029 70.4284 0.529297 58.002 0.529297C45.5755 0.529297 35.502 10.6029 35.502 23.0293C35.502 35.4557 45.5755 45.5293 58.002 45.5293Z" fill="#EF5A9D"/>
<path d="M72.7465 35.0685C72.7465 35.067 72.7457 35.0648 72.7457 35.0648C72.742 35.0393 72.7382 35.0145 72.7337 34.989C72.733 34.9868 72.733 34.9845 72.733 34.983C72.7292 34.9613 72.7247 34.9395 72.721 34.9178C72.7195 34.9118 72.7187 34.905 72.7172 34.899C72.7127 34.8788 72.7082 34.8585 72.7037 34.8383C72.7022 34.8315 72.7007 34.8248 72.6992 34.818C72.6947 34.8 72.6902 34.782 72.6857 34.764C72.6827 34.7543 72.6812 34.7445 72.6782 34.7355C72.6707 34.7093 72.6632 34.6823 72.655 34.656L69.997 25.995C69.988 25.965 69.9775 25.9343 69.9677 25.9043C69.9467 25.8443 69.9242 25.7858 69.8995 25.728C69.8125 25.5263 69.7015 25.3388 69.5702 25.1693C69.5327 25.1205 69.4937 25.0733 69.4525 25.0283C69.4322 25.0058 69.4112 24.9833 69.3902 24.9608C69.3475 24.9165 69.304 24.8738 69.2582 24.8333C69.2357 24.813 69.2125 24.7928 69.1892 24.7733C69.1427 24.7343 69.0947 24.696 69.0452 24.66C68.971 24.606 68.8937 24.5558 68.8142 24.51C68.7077 24.4485 68.5975 24.3945 68.482 24.3488C68.425 24.3255 68.3657 24.3045 68.3065 24.2858C68.2472 24.267 68.1872 24.2498 68.1265 24.2355C68.035 24.2138 67.942 24.1965 67.8475 24.1845L63.4089 23.5988C63.4284 23.4525 63.388 23.2988 63.2807 23.1795L62.0267 21.7823C61.879 21.6173 61.6427 21.564 61.438 21.6488L61.3592 21.681V20.4555C62.656 19.6088 63.6767 18.2348 64.2182 16.5758C64.255 16.5855 64.2925 16.593 64.3307 16.5983C65.0305 16.6965 65.6987 16.059 65.8225 15.1748C65.9462 14.2905 65.4797 13.494 64.78 13.3965C64.7312 13.3898 64.6825 13.3868 64.6337 13.3868C64.6322 13.3553 64.6307 13.3238 64.6285 13.293C64.627 13.266 64.6247 13.2398 64.6232 13.2128C64.621 13.1798 64.6187 13.1475 64.6157 13.1145C64.6135 13.0868 64.6105 13.059 64.6082 13.032C64.6052 12.999 64.6022 12.966 64.5985 12.9338C64.5955 12.9075 64.5925 12.882 64.5895 12.8558C64.5857 12.8235 64.582 12.7913 64.5775 12.759C64.5737 12.7313 64.57 12.7035 64.5662 12.6765C64.5617 12.6473 64.558 12.618 64.5534 12.5888C64.549 12.5595 64.5445 12.531 64.54 12.5018C64.5355 12.4733 64.5302 12.4455 64.5257 12.417C64.5205 12.3893 64.516 12.3608 64.5107 12.333C64.5055 12.303 64.4995 12.2738 64.4935 12.2445C64.4882 12.219 64.4837 12.1935 64.4777 12.168C64.4717 12.1373 64.4642 12.1073 64.4582 12.0765C64.4522 12.051 64.447 12.0263 64.441 12.0008C64.4342 11.9723 64.4275 11.9438 64.4207 11.916C64.4147 11.8898 64.408 11.8643 64.4012 11.838C64.3937 11.8088 64.3855 11.7795 64.3772 11.7503C64.3704 11.7263 64.3645 11.7023 64.3577 11.6783C64.3502 11.6513 64.342 11.625 64.3345 11.5988C64.327 11.5718 64.3187 11.5448 64.3105 11.5185C64.306 11.5028 64.3007 11.4878 64.2955 11.472C64.2752 11.4068 64.2535 11.3423 64.231 11.2785C64.2242 11.2583 64.2167 11.238 64.21 11.2185C64.2002 11.1923 64.1905 11.1668 64.1815 11.1413C64.1725 11.1165 64.1635 11.0925 64.1537 11.0678C64.1425 11.0385 64.1305 11.0093 64.1185 10.9793C64.111 10.9613 64.1042 10.9425 64.0967 10.9245C64.0847 10.8953 64.072 10.866 64.0592 10.8368C64.051 10.8173 64.0427 10.7978 64.0337 10.7783C64.021 10.7498 64.0082 10.722 63.9955 10.6943C63.9872 10.6755 63.9782 10.6575 63.9699 10.6388C63.9564 10.6103 63.9422 10.5818 63.9279 10.5533C63.919 10.5353 63.9107 10.5173 63.9017 10.5C63.8882 10.473 63.874 10.4453 63.8597 10.4183C63.85 10.3995 63.8395 10.3808 63.8297 10.362C63.8147 10.335 63.8005 10.3073 63.7855 10.2803C63.7765 10.2645 63.7682 10.2495 63.7592 10.2345C63.7427 10.2053 63.7262 10.176 63.709 10.1468C63.7007 10.1333 63.6925 10.119 63.6842 10.1055C63.667 10.0755 63.6482 10.0463 63.6302 10.017C63.6227 10.005 63.6152 9.99379 63.6077 9.98179C63.5882 9.95104 63.5687 9.92104 63.5492 9.89029C63.5425 9.87979 63.5357 9.87004 63.529 9.86029C63.508 9.82804 63.4862 9.79654 63.4645 9.76504C63.4622 9.76129 63.4592 9.75754 63.457 9.75454C63.211 9.40129 62.9305 9.08179 62.623 8.79829L62.6215 8.79754C62.0822 8.30104 61.4552 7.91254 60.766 7.64329C60.7577 7.64029 60.7495 7.63729 60.7412 7.63429C60.6977 7.61779 60.6542 7.60129 60.61 7.58479C60.598 7.58029 60.5867 7.57654 60.5747 7.57279C60.535 7.55854 60.4945 7.54504 60.454 7.53154C60.4397 7.52704 60.4255 7.52254 60.4112 7.51729C60.3722 7.50454 60.3332 7.49254 60.2935 7.48054C60.2785 7.47604 60.2635 7.47154 60.2485 7.46704C60.2087 7.45579 60.1697 7.44454 60.13 7.43329C60.115 7.42954 60.1015 7.42504 60.0865 7.42129C60.0415 7.40929 59.9957 7.39804 59.9499 7.38679C59.9417 7.38454 59.9335 7.38229 59.9252 7.38079C59.815 7.35454 59.7032 7.33054 59.5907 7.31029C59.5787 7.30804 59.5675 7.30654 59.5555 7.30429C59.5112 7.29604 59.4677 7.28854 59.4235 7.28179C59.407 7.27879 59.3905 7.27654 59.3732 7.27429C59.3335 7.26829 59.2945 7.26304 59.2547 7.25779C59.2345 7.25479 59.215 7.25254 59.1947 7.25029C59.1587 7.24579 59.1227 7.24129 59.0867 7.23754C59.065 7.23529 59.0425 7.23304 59.0207 7.23079C59.017 7.23079 59.0125 7.23004 59.0087 7.22929H59.0057C58.9757 7.22629 58.9457 7.22404 58.9157 7.22104C58.8925 7.21954 58.8692 7.21729 58.8467 7.21579C58.8205 7.21354 58.7942 7.21204 58.768 7.21054C58.7515 7.20979 58.735 7.20829 58.7185 7.20754C58.7035 7.20679 58.6892 7.20604 58.6742 7.20529C58.6577 7.20454 58.6412 7.20379 58.6247 7.20304C58.5985 7.20229 58.5715 7.20079 58.5452 7.20004C58.5302 7.19929 58.5152 7.19929 58.501 7.19854C58.4935 7.19854 58.486 7.19779 58.4792 7.19779C58.429 7.19704 58.378 7.19629 58.327 7.19629C58.273 7.19629 58.219 7.19704 58.1657 7.19779C58.1492 7.19854 58.1334 7.19854 58.1169 7.19929C58.0802 7.20004 58.0435 7.20154 58.0067 7.20304C57.9827 7.20379 57.9587 7.20604 57.9347 7.20679C57.9055 7.20829 57.877 7.20979 57.8477 7.21204C57.8252 7.21354 57.8035 7.21504 57.7817 7.21729C57.751 7.21954 57.7195 7.22179 57.6887 7.22479C57.6677 7.22629 57.646 7.22929 57.625 7.23079C57.5942 7.23379 57.5635 7.23679 57.5327 7.24054C57.5095 7.24279 57.4862 7.24579 57.4637 7.24879C57.4352 7.25254 57.4067 7.25554 57.379 7.25929C57.3535 7.26304 57.328 7.26679 57.3025 7.27054C57.2762 7.27429 57.2507 7.27804 57.2252 7.28179C57.199 7.28629 57.1735 7.29079 57.1472 7.29529C57.1225 7.29979 57.0977 7.30354 57.073 7.30804C57.0467 7.31254 57.0205 7.31779 56.9942 7.32304C56.9695 7.32754 56.9455 7.33279 56.9215 7.33729C56.8952 7.34254 56.8697 7.34854 56.8435 7.35454C56.8195 7.35979 56.7955 7.36504 56.7722 7.37029C56.7445 7.37704 56.7175 7.38304 56.6897 7.38979C56.668 7.39504 56.6462 7.40029 56.6252 7.40629C56.5975 7.41304 56.5697 7.42129 56.542 7.42804C56.521 7.43404 56.4992 7.43929 56.4782 7.44529C56.4505 7.45279 56.4227 7.46104 56.3957 7.46929C56.3747 7.47529 56.3545 7.48129 56.3342 7.48804C56.3057 7.49704 56.2772 7.50604 56.2487 7.51504C56.2292 7.52104 56.2105 7.52704 56.191 7.53379C56.1617 7.54354 56.1332 7.55329 56.104 7.56379C56.086 7.56979 56.068 7.57654 56.05 7.58329C56.0207 7.59379 55.9922 7.60429 55.963 7.61554C55.9442 7.62229 55.9255 7.62979 55.9075 7.63654C55.879 7.64779 55.8505 7.65904 55.8227 7.67029C55.8055 7.67704 55.789 7.68379 55.7717 7.69129C55.7425 7.70329 55.7125 7.71604 55.6832 7.72879C55.6675 7.73554 55.6517 7.74229 55.636 7.74979C55.6052 7.76329 55.5752 7.77754 55.5445 7.79104C55.531 7.79779 55.5167 7.80379 55.5032 7.81054C55.4725 7.82479 55.4417 7.83979 55.4117 7.85479C55.3982 7.86154 55.384 7.86829 55.3705 7.87579C55.339 7.89154 55.3067 7.90804 55.2752 7.92454C55.2647 7.93054 55.2535 7.93579 55.243 7.94179C55.2107 7.95904 55.1785 7.97629 55.147 7.99429C55.1357 8.00104 55.1237 8.00704 55.1125 8.01379C55.0802 8.03254 55.048 8.05054 55.0157 8.07004C55.0075 8.07529 54.9985 8.08054 54.9902 8.08504C54.9557 8.10604 54.922 8.12629 54.8875 8.14804C54.8807 8.15254 54.8747 8.15629 54.8687 8.16004C54.8327 8.18254 54.7975 8.20579 54.7622 8.22904C54.7577 8.23204 54.7532 8.23504 54.7495 8.23804C54.7127 8.26279 54.676 8.28754 54.6392 8.31304C54.637 8.31454 54.6347 8.31604 54.6332 8.31754C54.595 8.34454 54.5567 8.37154 54.5192 8.39929L54.5177 8.40004C53.0935 9.45304 52.1417 11.1615 52.0262 13.386C51.9775 13.386 51.9287 13.389 51.8807 13.3958C51.181 13.494 50.7137 14.2898 50.8382 15.174C50.962 16.0583 51.6295 16.6958 52.3292 16.5975C52.3675 16.5923 52.405 16.5848 52.4417 16.575C52.9832 18.234 54.0032 19.608 55.3007 20.4548V21.6803L55.222 21.648C55.0172 21.5633 54.7817 21.6165 54.6332 21.7815L53.3792 23.1788C53.272 23.298 53.2307 23.4525 53.251 23.598L48.8125 24.1838C48.718 24.1958 48.6242 24.213 48.5335 24.2348C48.4727 24.2498 48.412 24.2663 48.3527 24.285C48.2935 24.3038 48.235 24.3248 48.178 24.348C48.0632 24.3938 47.9522 24.4478 47.8457 24.5093C47.7662 24.555 47.689 24.6053 47.6147 24.6593C47.5652 24.6953 47.5172 24.7328 47.4707 24.7725C47.4475 24.792 47.4242 24.8123 47.4017 24.8325C47.3567 24.8738 47.3125 24.9158 47.2705 24.96C47.2495 24.9825 47.2285 25.0043 47.2082 25.0275C47.167 25.0733 47.128 25.1205 47.0905 25.1685C46.9592 25.3388 46.8475 25.5263 46.7612 25.7273C46.7365 25.785 46.7132 25.8435 46.693 25.9035C46.6825 25.9335 46.6727 25.9635 46.663 25.9943L44.005 34.6553C43.9967 34.6823 43.9892 34.7093 43.9817 34.7363C43.981 34.74 43.9802 34.7438 43.9787 34.7475C43.972 34.7715 43.966 34.7948 43.96 34.8188C43.96 34.8203 43.9592 34.8225 43.9585 34.8248C43.9525 34.8503 43.9472 34.875 43.942 34.8998C43.9412 34.9035 43.9405 34.9065 43.9397 34.9095C43.9345 34.9335 43.93 34.9575 43.9262 34.9815C43.9255 34.9838 43.9255 34.9853 43.9255 34.9875C43.9 35.1368 43.888 35.2845 43.8887 35.4308C43.8887 35.4563 43.8895 35.4818 43.8902 35.5073C43.891 35.5328 43.8925 35.5575 43.894 35.583C43.8992 35.6588 43.9075 35.7338 43.9187 35.808C43.9225 35.8328 43.927 35.8575 43.9315 35.8815C43.9405 35.9303 43.951 35.979 43.963 36.0278C43.969 36.0518 43.975 36.0758 43.9817 36.0998C44.008 36.195 44.0395 36.2888 44.0762 36.3803C44.113 36.4718 44.155 36.561 44.2015 36.6465C44.2247 36.69 44.2495 36.732 44.275 36.774C44.4422 37.0448 44.6582 37.2848 44.9125 37.4798C44.9515 37.5098 44.992 37.5383 45.0325 37.5668C45.442 37.8443 45.9385 38.0085 46.483 38.0085H70.177C70.7215 38.0085 71.218 37.8435 71.6275 37.5668C71.6687 37.539 71.7085 37.5098 71.7475 37.4798C72.0025 37.2855 72.2185 37.0455 72.385 36.774C72.4105 36.7328 72.4352 36.69 72.4585 36.6465C72.505 36.5603 72.547 36.471 72.5845 36.3803C72.6212 36.2888 72.6527 36.1958 72.679 36.0998C72.6857 36.0758 72.6917 36.0518 72.6977 36.0278C72.7097 35.9798 72.7195 35.931 72.7292 35.8815C72.7337 35.8568 72.7382 35.8328 72.742 35.808C72.7532 35.7338 72.7615 35.6588 72.766 35.583C72.7675 35.5575 72.769 35.5328 72.7697 35.5073C72.7705 35.4818 72.7712 35.4563 72.7712 35.4308C72.7712 35.3123 72.763 35.1908 72.7465 35.0685Z" fill="#E43D91"/>
<path d="M61.3573 16.7109H55.2988V22.7694H61.3573V16.7109Z" fill="#E7AD27"/>
<path d="M53.3705 13.0536C53.4943 13.9379 53.0278 14.7344 52.328 14.8319C51.6283 14.9301 50.9608 14.2926 50.8363 13.4084C50.7125 12.5241 51.179 11.7276 51.8788 11.6301C52.5785 11.5319 53.2468 12.1694 53.3705 13.0536Z" fill="#F6CA14"/>
<path d="M63.2855 13.0536C63.1618 13.9379 63.6283 14.7344 64.328 14.8319C65.0278 14.9294 65.6953 14.2926 65.8198 13.4084C65.9435 12.5241 65.477 11.7276 64.7773 11.6301C64.0775 11.5319 63.4093 12.1694 63.2855 13.0536Z" fill="#F6CA14"/>
<path d="M64.6432 12.0824C64.6432 16.2397 61.8157 19.6102 58.3275 19.6102C54.8392 19.6102 52.0117 16.2397 52.0117 12.0824C52.0117 7.92516 54.8392 5.43066 58.3275 5.43066C61.8157 5.42991 64.6432 7.92441 64.6432 12.0824Z" fill="#FDDD3A"/>
<path d="M58.3275 18.9568C54.9315 18.9568 52.1625 15.7618 52.0185 11.7568C52.0147 11.8641 52.0117 11.9721 52.0117 12.0823C52.0117 16.2396 54.8392 19.6101 58.3275 19.6101C61.8157 19.6101 64.6432 16.2396 64.6432 12.0823C64.6432 11.9728 64.6402 11.8641 64.6365 11.7568C64.4917 15.7618 61.7235 18.9568 58.3275 18.9568Z" fill="#F6CA14"/>
<path d="M64.6266 12.6058C64.4158 9.0313 62.0376 6.80305 59.0188 6.5083C58.9768 6.79255 58.9551 7.08355 58.9551 7.37905C58.9551 10.5493 61.4331 13.1383 64.5568 13.3206C64.5898 13.0866 64.6123 12.848 64.6266 12.6058Z" fill="#F6CA14"/>
<path d="M70.1753 36.2441H46.4813C44.7376 36.2441 43.4911 34.5574 44.0026 32.8901L46.6606 24.2291C46.9591 23.2556 47.8006 22.5469 48.8108 22.4179L58.3283 21.1616L67.8458 22.4179C68.8561 22.5469 69.6976 23.2556 69.9961 24.2291L72.6541 32.8901C73.1656 34.5574 71.9191 36.2441 70.1753 36.2441Z" fill="#E6E7E8"/>
<path d="M60.0535 24.1751L58.7102 25.5183C58.4987 25.7298 58.156 25.7298 57.9452 25.5183L56.602 24.1751C56.3905 23.9636 56.3905 23.6208 56.602 23.4101L57.9452 22.0668C58.1567 21.8553 58.4995 21.8553 58.7102 22.0668L60.0535 23.4101C60.265 23.6208 60.265 23.9636 60.0535 24.1751Z" fill="#D0D2D3"/>
<path d="M44.0037 33.9356L46.6617 25.2746C46.9602 24.3011 47.8017 23.5924 48.812 23.4634L58.3295 22.2071L67.847 23.4634C68.8572 23.5924 69.6987 24.3011 69.9972 25.2746L72.6552 33.9356C72.68 34.0166 72.6995 34.0976 72.716 34.1779C72.8015 33.7684 72.7895 33.3289 72.6552 32.8909L69.9972 24.2299C69.6987 23.2564 68.8572 22.5476 67.847 22.4186L58.3295 21.1616L48.812 22.4186C47.8017 22.5476 46.961 23.2564 46.6617 24.2299L44.0037 32.8909C43.8695 33.3289 43.8575 33.7684 43.943 34.1779C43.9595 34.0969 43.979 34.0159 44.0037 33.9356Z" fill="white"/>
<path d="M58.3284 21.1685L56.2756 24.0432C56.0259 24.3935 55.5151 24.419 55.2309 24.0957L53.2441 21.833L58.3284 21.1685Z" fill="#D0D2D3"/>
<path d="M58.3281 21.1685L60.3809 24.0432C60.6306 24.3935 61.1414 24.419 61.4256 24.0957L63.4124 21.833L58.3281 21.1685Z" fill="#D0D2D3"/>
<path d="M72.5596 32.5825C72.1688 33.49 71.2703 34.1553 70.1753 34.1553H46.4813C45.3863 34.1553 44.4878 33.49 44.0971 32.5825L44.0026 32.8908C43.4911 34.558 44.7376 36.244 46.4813 36.244H70.1753C71.9191 36.244 73.1656 34.5573 72.6541 32.8908L72.5596 32.5825Z" fill="#D0D2D3"/>
<path d="M52.0117 12.0824C52.0117 12.4244 52.0327 12.7604 52.0695 13.0904C52.659 13.2479 53.2777 13.3342 53.9175 13.3342C57.8722 13.3342 61.0777 10.1287 61.0777 6.17391C61.0777 6.11841 61.0747 6.06366 61.074 6.00816C60.2437 5.62941 59.3115 5.43066 58.3275 5.43066C54.8392 5.42991 52.0117 7.92441 52.0117 12.0824Z" fill="#F6CA14"/>
<path d="M52.0195 11.7484C52.774 12.0949 53.6133 12.2892 54.4975 12.2892C57.7855 12.2892 60.4518 9.62369 60.4518 6.33494C60.4518 6.13919 60.4413 5.94569 60.4233 5.75519C59.767 5.54144 59.0628 5.42969 58.3278 5.42969C54.934 5.42969 52.1665 7.79144 52.0195 11.7484Z" fill="#0099DC"/>
<path d="M58.3278 6.47444C59.0628 6.47444 59.767 6.58619 60.4233 6.79994C60.4255 6.81944 60.4255 6.83894 60.4278 6.85844C60.4428 6.68594 60.4518 6.51194 60.4518 6.33494C60.4518 6.13919 60.4413 5.94569 60.4233 5.75519C59.767 5.54144 59.0628 5.42969 58.3278 5.42969C54.934 5.42969 52.1665 7.79144 52.0195 11.7484C52.0518 11.7634 52.0855 11.7762 52.1185 11.7904C52.6578 8.44094 55.2318 6.47444 58.3278 6.47444Z" fill="#1CADE3"/>
<path d="M59.0188 5.46436C58.9768 5.74861 58.9551 6.0396 58.9551 6.3351C58.9551 9.5331 61.4766 12.1416 64.6393 12.2826C64.6408 12.2159 64.6438 12.1491 64.6438 12.0824C64.6438 8.20261 62.1816 5.77261 59.0188 5.46436Z" fill="#1CADE3"/>
<path d="M59.0188 6.50911C61.9446 6.79411 64.2688 8.89636 64.6011 12.2804C64.6138 12.2811 64.6266 12.2826 64.6393 12.2826C64.6408 12.2159 64.6438 12.1491 64.6438 12.0824C64.6438 8.20336 62.1816 5.77261 59.0188 5.46436C58.9768 5.74861 58.9551 6.0396 58.9551 6.3351C58.9551 6.51135 58.9641 6.68536 58.9791 6.85786C58.9888 6.74086 59.0023 6.62461 59.0188 6.50911Z" fill="#23C1E6"/>
<path d="M60.6351 23.4681C60.8151 23.6474 61.0986 23.6714 61.3056 23.5244L63.1941 22.1856C63.4469 22.0041 63.4866 21.6434 63.2789 21.4124L62.0249 20.0151C61.8771 19.8501 61.6409 19.7969 61.4361 19.8816L58.3281 21.1679L60.6351 23.4681Z" fill="white"/>
<path d="M56.0216 23.4681C55.8416 23.6474 55.5582 23.6714 55.3512 23.5244L53.4619 22.1856C53.2091 22.0041 53.1701 21.6434 53.3779 21.4124L54.6319 20.0151C54.7797 19.8501 55.0159 19.7969 55.2206 19.8816L58.3287 21.1679L56.0216 23.4681Z" fill="white"/>
<path d="M55.9668 36.244L57.5838 23.1348H59.0733L60.691 36.244H55.9668Z" fill="#0099DC"/>
<path d="M65.3813 29.1154H61.5931C61.3043 29.1154 61.0703 28.8814 61.0703 28.5919C61.0703 28.3031 61.3043 28.0684 61.5931 28.0684H65.3813C65.6701 28.0684 65.9048 28.3024 65.9048 28.5919C65.9048 28.8806 65.6701 29.1154 65.3813 29.1154Z" fill="#D0D2D3"/>
<path d="M48.0117 36.2441L49.1375 30.0198C49.1795 29.7858 49.517 29.7934 49.55 30.0281L50.4147 36.2441H48.0117Z" fill="#D0D2D3"/>
<path d="M68.6413 36.2441L67.5155 30.0198C67.4735 29.7858 67.136 29.7934 67.103 30.0281L66.2383 36.2441H68.6413Z" fill="#D0D2D3"/>
<path d="M57.3828 25.1628L57.9468 25.7268C58.1583 25.9383 58.5011 25.9383 58.7118 25.7268L59.2758 25.1628L59.0741 23.1348H57.5846L57.3828 25.1628Z" fill="#106EA0"/>
<path d="M60.0535 23.6531L58.7102 24.9964C58.4987 25.2079 58.156 25.2079 57.9452 24.9964L56.602 23.6531C56.3905 23.4416 56.3905 23.0989 56.602 22.8881L57.9452 21.5449C58.1567 21.3334 58.4995 21.3334 58.7102 21.5449L60.0535 22.8881C60.265 23.0989 60.265 23.4416 60.0535 23.6531Z" fill="#1CADE3"/>
<path d="M58.9836 15.8165L58.4923 16.3077C58.4008 16.3992 58.2531 16.3992 58.1616 16.3077L57.6703 15.8165C57.5233 15.6695 57.6276 15.4175 57.8353 15.4175H58.8179C59.0264 15.4175 59.1313 15.6695 58.9836 15.8165Z" fill="#F6CA14"/>
<path d="M56.2218 34.1777L55.9668 36.244H60.691L60.436 34.1777H56.2218Z" fill="#106EA0"/>
</svg>
