<svg width="164" height="106" viewBox="0 0 164 106" fill="none" xmlns="http://www.w3.org/2000/svg">
<path d="M126.3 22.4688H112.89C117.294 23.3045 116.847 26.7778 115.453 30.9007C111.013 43.3644 106.482 56.0142 101.967 68.4621C97.5471 56.2756 92.8658 43.107 88.537 30.8849C86.9211 26.3343 86.4538 23.3441 91.1192 22.4688H68.2909C72.9524 23.3401 75.3842 26.6867 76.9287 30.9007L78.6199 35.5424C74.699 46.5011 70.7425 57.5549 66.7859 68.4581C62.366 56.2717 57.6847 43.103 53.3559 30.8809C51.74 26.3303 51.2726 23.3401 55.9381 22.4648H43.2447C28.8285 22.4648 14.4162 22.4648 0 22.4648C4.68131 23.356 5.57243 27.7402 5.57243 31.9384V76.5177C5.57243 80.7159 4.68131 85.1002 0 85.9913H43.2447L45.3438 78.0029V69.9988C44.4328 78.5059 38.4129 84.0585 30.2978 84.0585H16.3291V55.1905H23.3313C30.5751 55.1905 34.7375 56.8261 35.8148 65.167V43.2654C34.7375 51.622 30.5751 53.2577 23.3313 53.2577H16.3291V24.4015H30.2978C34.4128 24.4015 37.9812 25.8313 40.6229 28.3462C41.0466 29.1502 41.4189 30.0056 41.7437 30.9007C48.4132 49.2537 55.4351 68.5888 62.1204 86.9616L79.713 38.5366C85.527 54.5687 91.547 71.1196 97.2857 86.9616L117.663 30.9205C119.187 26.7026 121.619 23.3599 126.3 22.4688Z" fill="#142640"/>
<path d="M143.406 14.4648L136.052 0.0683594H125.018L141.196 14.4648H143.406Z" fill="#142640"/>
<path d="M140.378 85.9996H163.206C158.545 85.1283 156.113 81.8015 154.569 77.5875C147.899 59.2148 140.877 39.8796 134.212 21.5068L113.855 77.5479C112.33 81.7817 109.898 85.1283 105.217 85.9996H118.607C114.223 85.1798 114.671 81.7104 116.045 77.5875C116.841 75.3974 117.958 72.2369 118.718 70.0824H140.303C141.083 72.2765 142.196 75.4132 142.96 77.5875C144.576 82.1579 145.04 85.1283 140.378 85.9996ZM119.423 68.1496C122.766 58.7514 126.057 49.6105 129.546 40.0261C132.944 49.3888 136.291 58.7672 139.614 68.1496H119.423Z" fill="#142640"/>
<path d="M6.42268 100.582V105.945H5.71772V101.944L3.93549 105.945H3.44043L1.65028 101.937V105.945H0.945312V100.582H1.70573L3.68994 105.014L5.67415 100.582H6.42664H6.42268Z" fill="#142640"/>
<path d="M13.1363 104.745H10.7798L10.3442 105.945H9.59961L11.5521 100.574H12.364L14.3086 105.945H13.5641L13.1284 104.745H13.1363ZM12.9343 104.17L11.9561 101.442L10.9818 104.17H12.9343Z" fill="#142640"/>
<path d="M20.419 105.945L18.1972 103.481V105.945H17.4922V100.542H18.1972V103.046L20.4309 100.542H21.322L18.8744 103.247L21.3457 105.945H20.423H20.419Z" fill="#142640"/>
<path d="M25.164 100.542V105.945H24.459V100.542H25.164Z" fill="#142640"/>
<path d="M32.939 105.945H32.234L29.3983 101.644V105.945H28.6934V100.535H29.3983L32.234 104.828V100.535H32.939V105.945Z" fill="#142640"/>
<path d="M40.5538 102.111C40.4033 101.794 40.1855 101.552 39.9043 101.378C39.6191 101.204 39.2904 101.117 38.9102 101.117C38.53 101.117 38.1934 101.204 37.8924 101.378C37.5914 101.552 37.3537 101.798 37.1795 102.122C37.0052 102.447 36.9181 102.82 36.9181 103.243C36.9181 103.667 37.0052 104.039 37.1795 104.36C37.3537 104.681 37.5914 104.927 37.8924 105.101C38.1934 105.275 38.534 105.362 38.9102 105.362C39.437 105.362 39.8726 105.204 40.2132 104.891C40.5538 104.578 40.7518 104.15 40.8112 103.612H38.6567V103.037H41.5638V103.58C41.5241 104.024 41.3855 104.431 41.1439 104.8C40.9063 105.168 40.5934 105.461 40.2053 105.675C39.8172 105.889 39.3855 105.996 38.9102 105.996C38.4112 105.996 37.9518 105.877 37.5399 105.643C37.128 105.41 36.7993 105.081 36.5577 104.661C36.3161 104.241 36.1973 103.77 36.1973 103.243C36.1973 102.717 36.3161 102.241 36.5577 101.822C36.7993 101.402 37.124 101.073 37.5399 100.839C37.9518 100.606 38.4112 100.487 38.9102 100.487C39.4845 100.487 39.9914 100.629 40.435 100.915C40.8786 101.2 41.1994 101.6 41.4014 102.115H40.5578L40.5538 102.111Z" fill="#142640"/>
<path d="M52.4566 103.402C52.619 103.533 52.7497 103.691 52.8447 103.881C52.9398 104.071 52.9873 104.277 52.9873 104.495C52.9873 104.768 52.916 105.014 52.7774 105.236C52.6388 105.457 52.4328 105.628 52.1675 105.754C51.9021 105.881 51.5892 105.945 51.2249 105.945H49.209V100.542H51.1457C51.514 100.542 51.8269 100.602 52.0843 100.725C52.3417 100.847 52.5358 101.01 52.6665 101.216C52.7972 101.422 52.8606 101.655 52.8606 101.913C52.8606 102.234 52.7734 102.499 52.5992 102.705C52.4249 102.915 52.1992 103.065 51.914 103.16C52.112 103.192 52.2903 103.271 52.4526 103.402H52.4566ZM49.9179 102.875H51.1021C51.4308 102.875 51.6883 102.796 51.8704 102.642C52.0526 102.487 52.1398 102.273 52.1398 102C52.1398 101.727 52.0487 101.513 51.8704 101.358C51.6922 101.204 51.4308 101.125 51.0863 101.125H49.9179V102.875ZM51.9893 105.117C52.1873 104.951 52.2863 104.721 52.2863 104.428C52.2863 104.135 52.1833 103.893 51.9774 103.719C51.7714 103.545 51.4942 103.457 51.1496 103.457H49.9258V105.362H51.1734C51.5259 105.362 51.7992 105.279 51.9932 105.113L51.9893 105.117Z" fill="#142640"/>
<path d="M56.994 101.117V102.923H58.9624V103.505H56.994V105.366H59.1961V105.949H56.2891V100.539H59.1961V101.121H56.994V101.117Z" fill="#142640"/>
<path d="M65.7828 104.745H63.4263L62.9907 105.945H62.2461L64.1986 100.574H65.0105L66.9551 105.945H66.2105L65.7749 104.745H65.7828ZM65.5808 104.17L64.6026 101.442L63.6283 104.17H65.5808Z" fill="#142640"/>
<path d="M70.828 100.542V103.96C70.828 104.44 70.9468 104.796 71.1804 105.03C71.4141 105.263 71.7428 105.378 72.1587 105.378C72.5745 105.378 72.8953 105.263 73.133 105.03C73.3666 104.796 73.4854 104.44 73.4854 103.96V100.542H74.1904V103.952C74.1904 104.404 74.0993 104.78 73.9211 105.089C73.7389 105.398 73.4973 105.624 73.1884 105.774C72.8795 105.925 72.5349 106 72.1547 106C71.7745 106 71.426 105.925 71.121 105.774C70.8121 105.624 70.5705 105.394 70.3923 105.089C70.2141 104.78 70.127 104.404 70.127 103.952V100.542H70.8319H70.828Z" fill="#142640"/>
<path d="M81.0189 100.542V101.117H79.5456V105.945H78.8406V101.117H77.3594V100.542H81.0189Z" fill="#142640"/>
<path d="M87.9974 100.542L86.2389 103.905V105.945H85.534V103.905L83.7676 100.542H84.5517L85.8864 103.279L87.2211 100.542H88.0053H87.9974Z" fill="#142640"/>
<path d="M95.5498 101.818C95.7874 101.398 96.1122 101.069 96.5241 100.832C96.936 100.594 97.3914 100.475 97.8905 100.475C98.4806 100.475 98.9915 100.618 99.4351 100.903C99.8747 101.188 100.195 101.588 100.397 102.111H99.5539C99.4034 101.786 99.1895 101.537 98.9083 101.358C98.6271 101.184 98.2905 101.093 97.8944 101.093C97.4984 101.093 97.1776 101.18 96.8805 101.358C96.5795 101.533 96.3459 101.782 96.1756 102.107C96.0053 102.432 95.9181 102.808 95.9181 103.243C95.9181 103.679 96.0053 104.047 96.1756 104.372C96.3459 104.697 96.5795 104.947 96.8805 105.121C97.1815 105.295 97.5182 105.386 97.8944 105.386C98.2707 105.386 98.6232 105.299 98.9083 105.125C99.1895 104.95 99.4034 104.701 99.5539 104.376H100.397C100.195 104.891 99.8747 105.291 99.4351 105.572C98.9954 105.853 98.4806 105.996 97.8905 105.996C97.3914 105.996 96.932 105.877 96.5241 105.644C96.1122 105.41 95.7874 105.081 95.5498 104.661C95.3122 104.242 95.1934 103.77 95.1934 103.243C95.1934 102.717 95.3122 102.241 95.5498 101.822V101.818Z" fill="#142640"/>
<path d="M104.845 105.647C104.433 105.414 104.104 105.085 103.862 104.661C103.621 104.237 103.502 103.766 103.502 103.239C103.502 102.713 103.621 102.237 103.862 101.818C104.104 101.398 104.429 101.069 104.845 100.835C105.256 100.602 105.716 100.483 106.215 100.483C106.714 100.483 107.181 100.602 107.593 100.835C108.005 101.069 108.334 101.398 108.567 101.814C108.805 102.233 108.924 102.709 108.924 103.239C108.924 103.77 108.805 104.245 108.567 104.665C108.33 105.085 108.005 105.41 107.593 105.647C107.181 105.881 106.718 106 106.215 106C105.712 106 105.256 105.881 104.845 105.647ZM107.237 105.125C107.538 104.95 107.775 104.697 107.95 104.372C108.124 104.047 108.211 103.671 108.211 103.239C108.211 102.808 108.124 102.428 107.95 102.103C107.775 101.778 107.542 101.528 107.241 101.354C106.94 101.18 106.599 101.089 106.219 101.089C105.839 101.089 105.494 101.176 105.197 101.354C104.896 101.528 104.662 101.778 104.488 102.103C104.314 102.428 104.227 102.804 104.227 103.239C104.227 103.675 104.314 104.043 104.488 104.372C104.662 104.697 104.9 104.946 105.201 105.125C105.502 105.299 105.843 105.39 106.219 105.39C106.595 105.39 106.936 105.303 107.237 105.125Z" fill="#142640"/>
<path d="M116.431 105.945H115.726L112.891 101.644V105.945H112.186V100.535H112.891L115.726 104.828V100.535H116.431V105.945Z" fill="#142640"/>
<path d="M124.422 100.542L122.383 105.945H121.571L119.531 100.542H120.284L121.983 105.2L123.682 100.542H124.426H124.422Z" fill="#142640"/>
<path d="M128.226 101.117V102.923H130.195V103.505H128.226V105.366H130.429V105.949H127.521V100.539H130.429V101.121H128.226V101.117Z" fill="#142640"/>
<path d="M138.07 105.945H137.365L134.529 101.644V105.945H133.824V100.535H134.529L137.365 104.828V100.535H138.07V105.945Z" fill="#142640"/>
<path d="M142.299 100.542V105.945H141.594V100.542H142.299Z" fill="#142640"/>
<path d="M146.533 101.117V102.923H148.501V103.505H146.533V105.366H148.735V105.949H145.828V100.539H148.735V101.121H146.533V101.117Z" fill="#142640"/>
<path d="M156.375 105.945H155.67L152.834 101.644V105.945H152.129V100.535H152.834L155.67 104.828V100.535H156.375V105.945Z" fill="#142640"/>
<path d="M163.228 100.542V101.117H161.755V105.945H161.05V101.117H159.568V100.542H163.228Z" fill="#142640"/>
</svg>
