<svg width="118" height="114" viewBox="0 0 118 114" fill="none" xmlns="http://www.w3.org/2000/svg">
<path d="M89.9405 100.855V104.495H28.0605V100.855C28.0634 99.8908 28.4479 98.9667 29.1299 98.2846C29.8119 97.6026 30.736 97.2182 31.7005 97.2153H86.3005C87.265 97.2182 88.1892 97.6026 88.8712 98.2846C89.5532 98.9667 89.9377 99.8908 89.9405 100.855Z" fill="#7E8596"/>
<path d="M38.9798 86.2954H79.0198L82.6598 97.2154H73.5598L71.7398 91.7554H46.2598L44.4398 97.2154H35.3398L38.9798 86.2954Z" fill="#AFB4C8"/>
<path d="M115.418 71.7354V79.0154C115.418 80.9461 114.651 82.7978 113.286 84.1631C111.921 85.5284 110.069 86.2954 108.138 86.2954H9.85813C7.92735 86.2954 6.07565 85.5284 4.71039 84.1631C3.34512 82.7978 2.57813 80.9461 2.57812 79.0154V71.7354H115.418Z" fill="#E9EDF5"/>
<path d="M115.418 9.8552V71.7352H2.57812V9.8552C2.57813 7.92442 3.34512 6.07272 4.71039 4.70746C6.07565 3.34219 7.92735 2.5752 9.85813 2.5752H108.138C110.069 2.5752 111.921 3.34219 113.286 4.70746C114.651 6.07272 115.418 7.92442 115.418 9.8552Z" fill="#A3D4FF"/>
<path d="M108.139 71.7354V79.0154C108.139 80.9461 107.372 82.7978 106.007 84.1631C104.642 85.5284 102.79 86.2954 100.859 86.2954H108.139C110.07 86.2954 111.922 85.5284 113.287 84.1631C114.652 82.7978 115.419 80.9461 115.419 79.0154V71.7354H108.139Z" fill="#DCE1EB"/>
<path d="M108.139 2.5752H100.859C102.79 2.5752 104.642 3.34219 106.007 4.70746C107.372 6.07272 108.139 7.92442 108.139 9.8552V71.7352H115.419V9.8552C115.419 7.92442 114.652 6.07272 113.287 4.70746C111.922 3.34219 110.07 2.5752 108.139 2.5752Z" fill="#65B1FC"/>
<path d="M9.85812 71.7354V79.0154C9.85812 80.9461 10.6251 82.7978 11.9904 84.1631C13.3557 85.5284 15.2073 86.2954 17.1381 86.2954H9.85812C7.92735 86.2954 6.07565 85.5284 4.71039 84.1631C3.34512 82.7978 2.57813 80.9461 2.57812 79.0154V71.7354H9.85812Z" fill="#DCE1EB"/>
<path d="M9.85812 2.5752H17.1381C15.2073 2.5752 13.3557 3.34219 11.9904 4.70746C10.6251 6.07272 9.85812 7.92442 9.85812 9.8552V71.7352H2.57812V9.8552C2.57813 7.92442 3.34512 6.07272 4.71039 4.70746C6.07565 3.34219 7.92735 2.5752 9.85812 2.5752Z" fill="#65B1FC"/>
<path d="M29.8796 38.9751H22.5996V53.5351H29.8796V38.9751Z" fill="#B2876D"/>
<path d="M29.8783 38.9751H26.2383V53.5351H29.8783V38.9751Z" fill="#966857"/>
<path d="M24.4187 17.1353V22.1039L17.1387 26.0715V17.1353H24.4187Z" fill="#966857"/>
<path d="M20.7787 17.1353H17.1387V26.0715L20.7787 24.0877V17.1353Z" fill="#B2876D"/>
<path d="M44.4398 38.9751H35.3398V46.2551H44.4398V38.9751Z" fill="#A3D4FF"/>
<path d="M44.4398 42.6152H35.3398V46.2552H44.4398V42.6152Z" fill="#65B1FC"/>
<path d="M44.4387 38.9755H35.3387V46.2555H44.4387V38.9755ZM49.8987 33.3517V53.5355H29.8787V38.9755H22.5987V53.5355H17.1387V33.3517L33.5187 24.4155L49.8987 33.3517Z" fill="#F7F7F7"/>
<path d="M33.5187 24.4155L17.1387 33.3517V36.9917L33.5187 28.0555L49.8987 36.9917V33.3517L33.5187 24.4155Z" fill="#CFCFCF"/>
<path d="M24.42 22.1039L33.52 17.1353L53.54 28.0553V35.3353L49.9 33.3515L33.52 24.4153L17.14 33.3515L13.5 35.3353V28.0553L17.14 26.0715L24.42 22.1039Z" fill="#FF936B"/>
<path d="M33.52 20.7754L17.14 29.7116L13.5 31.6954V35.3354L17.14 33.3516L33.52 24.4154L49.9 33.3516L53.54 35.3354V31.6954L49.9 29.7116L33.52 20.7754Z" fill="#FF7045"/>
<path d="M80.8405 38.9751H73.5605V53.5351H80.8405V38.9751Z" fill="#B2876D"/>
<path d="M80.8392 38.9751H77.1992V53.5351H80.8392V38.9751Z" fill="#966857"/>
<path d="M75.3796 17.1353V22.1039L68.0996 26.0715V17.1353H75.3796Z" fill="#966857"/>
<path d="M71.7396 17.1353H68.0996V26.0715L71.7396 24.0877V17.1353Z" fill="#B2876D"/>
<path d="M95.3988 38.9751H86.2988V46.2551H95.3988V38.9751Z" fill="#A3D4FF"/>
<path d="M95.3988 42.6152H86.2988V46.2552H95.3988V42.6152Z" fill="#65B1FC"/>
<path d="M95.3996 38.9755H86.2996V46.2555H95.3996V38.9755ZM100.86 33.3517V53.5355H80.8396V38.9755H73.5596V53.5355H68.0996V33.3517L84.4796 24.4155L100.86 33.3517Z" fill="#F7F7F7"/>
<path d="M84.4796 24.4155L68.0996 33.3517V36.9917L84.4796 28.0555L100.86 36.9917V33.3517L84.4796 24.4155Z" fill="#CFCFCF"/>
<path d="M75.379 22.1039L84.479 17.1353L104.499 28.0553V35.3353L100.859 33.3515L84.479 24.4153L68.099 33.3515L64.459 35.3353V28.0553L68.099 26.0715L75.379 22.1039Z" fill="#FF936B"/>
<path d="M84.479 20.7754L68.099 29.7116L64.459 31.6954V35.3354L68.099 33.3516L84.479 24.4154L100.859 33.3516L104.499 35.3354V31.6954L100.859 29.7116L84.479 20.7754Z" fill="#FF7045"/>
<path d="M108.14 97.2153V111.775H80.8395H79.0195V97.2153H82.6595H104.5H108.14Z" fill="#FF936B"/>
<path d="M108.14 97.2153V100.855H80.8395H79.0195V97.2153H82.6595H104.5H108.14Z" fill="#FFB89C"/>
<path d="M108.14 106.315V111.775H80.8395H79.0195V106.315H82.6595H104.5H108.14Z" fill="#FF7045"/>
<path d="M79.0183 69.9155V89.9355L71.7383 82.6555V73.5555C71.7412 72.591 72.1256 71.6669 72.8076 70.9848C73.4896 70.3028 74.4138 69.9184 75.3783 69.9155H79.0183Z" fill="#FFBEAA"/>
<path d="M100.86 66.2754C100.867 65.3122 101.252 64.3905 101.934 63.7094C102.615 63.0283 103.536 62.6425 104.5 62.6354C105.464 62.6383 106.388 63.0227 107.07 63.7047C107.752 64.3867 108.137 65.3109 108.14 66.2754V89.9354L104.5 93.5754V97.2154H82.6595V93.5754L79.0195 89.9354V49.8954C79.0267 48.9322 79.4125 48.0105 80.0936 47.3294C80.7747 46.6483 81.6964 46.2625 82.6595 46.2554C83.624 46.2583 84.5482 46.6427 85.2302 47.3247C85.9122 48.0067 86.2967 48.9309 86.2995 49.8954V62.6354C86.3024 61.6709 86.6868 60.7467 87.3688 60.0647C88.0509 59.3827 88.975 58.9983 89.9395 58.9954C90.9027 59.0025 91.8244 59.3883 92.5055 60.0694C93.1866 60.7505 93.5724 61.6722 93.5795 62.6354V64.4554C93.5824 63.4909 93.9668 62.5667 94.6488 61.8847C95.3309 61.2027 96.255 60.8183 97.2195 60.8154C98.1827 60.8225 99.1044 61.2083 99.7855 61.8894C100.467 62.5705 100.852 63.4922 100.86 64.4554V66.2754Z" fill="#FFDECF"/>
<path d="M82.6602 46.2554C83.6255 46.2554 84.5514 46.6389 85.234 47.3215C85.9167 48.0041 86.3002 48.93 86.3002 49.8954V75.3754H82.6602V46.2554Z" fill="#FFBEAA"/>
<path d="M89.9395 58.9951C90.9048 58.9951 91.8307 59.3786 92.5133 60.0612C93.196 60.7439 93.5795 61.6697 93.5795 62.6351V75.3751H89.9395V58.9951Z" fill="#FFBEAA"/>
<path d="M97.2207 60.8154C98.1861 60.8154 99.1119 61.1989 99.7946 61.8816C100.477 62.5642 100.861 63.49 100.861 64.4554V75.3754H97.2207V60.8154Z" fill="#FFBEAA"/>
<path d="M104.499 62.6353V89.9353L100.859 93.5753V97.2153H104.499V93.5753L108.139 89.9353V66.2753C108.136 65.3108 107.752 64.3866 107.07 63.7046C106.388 63.0226 105.464 62.6381 104.499 62.6353Z" fill="#FFBEAA"/>
<path d="M108.14 0.755371H9.85977C7.44718 0.758261 5.13424 1.71794 3.42829 3.42389C1.72233 5.12985 0.762656 7.44279 0.759766 9.85537L0.759766 79.0154C0.762656 81.428 1.72233 83.7409 3.42829 85.4469C5.13424 87.1528 7.44718 88.1125 9.85977 88.1154H36.4554L34.0294 95.3954H31.6998C30.2517 95.3954 28.8629 95.9706 27.839 96.9946C26.815 98.0185 26.2398 99.4073 26.2398 100.855V104.495C26.2398 104.978 26.4315 105.441 26.7728 105.782C27.1141 106.124 27.5771 106.315 28.0598 106.315H75.3798V102.675H29.8798V100.855C29.8798 100.373 30.0715 99.9098 30.4128 99.5684C30.7541 99.2271 31.2171 99.0354 31.6998 99.0354H75.3798V95.3954H74.8702L73.4651 91.1803C73.3445 90.818 73.1129 90.5029 72.8033 90.2794C72.4937 90.056 72.1216 89.9357 71.7398 89.9354H46.2598C45.8779 89.9357 45.5059 90.056 45.1962 90.2794C44.8866 90.5029 44.6551 90.818 44.5344 91.1803L43.1294 95.3954H37.8659L40.292 88.1154H66.2798V84.4754H9.85977C8.41168 84.4754 7.02291 83.9001 5.99896 82.8762C4.97501 81.8522 4.39977 80.4635 4.39977 79.0154V73.5554H66.2798V69.9154H4.39977V9.85537C4.39977 8.40729 4.97501 7.01852 5.99896 5.99457C7.02291 4.97062 8.41168 4.39537 9.85977 4.39537H108.14C109.588 4.39537 110.977 4.97062 112.001 5.99457C113.025 7.01852 113.6 8.40729 113.6 9.85537V69.9154H109.96V66.2754C109.96 64.8273 109.385 63.4385 108.361 62.4146C107.337 61.3906 105.948 60.8154 104.5 60.8154C103.559 60.8207 102.636 61.0717 101.823 61.5434C101.086 60.3512 99.9122 59.4938 98.5524 59.1539C97.1926 58.8139 95.7539 59.0183 94.5425 59.7234C93.8937 58.668 92.8987 57.8704 91.7274 57.4668C90.5561 57.0632 89.281 57.0786 88.1198 57.5103V49.8954C88.1198 48.4473 87.5445 47.0585 86.5206 46.0346C85.4966 45.0106 84.1078 44.4354 82.6598 44.4354C81.2117 44.4354 79.8229 45.0106 78.799 46.0346C77.775 47.0585 77.1998 48.4473 77.1998 49.8954V68.0954H75.3798C73.9317 68.0954 72.5429 68.6706 71.519 69.6946C70.495 70.7185 69.9198 72.1073 69.9198 73.5554V82.6554C69.9199 83.138 70.1117 83.6009 70.453 83.9421L77.733 91.2221L80.8398 94.3289V95.3954H79.0198C78.5371 95.3954 78.0741 95.5871 77.7328 95.9284C77.3915 96.2698 77.1998 96.7327 77.1998 97.2154V111.775C77.1998 112.258 77.3915 112.721 77.7328 113.062C78.0741 113.404 78.5371 113.595 79.0198 113.595H108.14C108.622 113.595 109.085 113.404 109.427 113.062C109.768 112.721 109.96 112.258 109.96 111.775V97.2154C109.96 96.7327 109.768 96.2698 109.427 95.9284C109.085 95.5871 108.622 95.3954 108.14 95.3954H106.32V94.3289L109.427 91.2221C109.768 90.8809 109.96 90.418 109.96 89.9354V87.9334C112.014 87.511 113.859 86.3933 115.185 84.7689C116.512 83.1444 117.237 81.1124 117.24 79.0154V9.85537C117.237 7.44279 116.277 5.12985 114.571 3.42389C112.865 1.71794 110.552 0.758261 108.14 0.755371ZM47.572 93.5754H70.4275L71.0354 95.3954H46.9641L47.572 93.5754ZM73.5598 73.5554C73.5598 73.0727 73.7515 72.6098 74.0928 72.2684C74.4341 71.9271 74.8971 71.7354 75.3798 71.7354H77.1998V85.5419L73.5598 81.9019V73.5554ZM106.32 109.955H80.8398V99.0354H106.32V109.955ZM106.32 89.1819L103.213 92.2886C102.872 92.6299 102.68 93.0927 102.68 93.5754V95.3954H84.4798V93.5754C84.4797 93.0927 84.2878 92.6299 83.9465 92.2886L80.8398 89.1819V49.8954C80.8398 49.4127 81.0315 48.9498 81.3728 48.6084C81.7141 48.2671 82.1771 48.0754 82.6598 48.0754C83.1425 48.0754 83.6054 48.2671 83.9467 48.6084C84.288 48.9498 84.4798 49.4127 84.4798 49.8954V75.3754H88.1198V62.6354C88.1198 62.1527 88.3115 61.6898 88.6528 61.3484C88.9941 61.0071 89.4571 60.8154 89.9398 60.8154C90.4225 60.8154 90.8854 61.0071 91.2267 61.3484C91.568 61.6898 91.7598 62.1527 91.7598 62.6354V75.3754H95.3998V64.4554C95.3998 63.9727 95.5915 63.5098 95.9328 63.1684C96.2741 62.8271 96.7371 62.6354 97.2198 62.6354C97.7025 62.6354 98.1654 62.8271 98.5067 63.1684C98.848 63.5098 99.0398 63.9727 99.0398 64.4554V75.3754H102.68V66.2754C102.68 65.7927 102.872 65.3298 103.213 64.9884C103.554 64.6471 104.017 64.4554 104.5 64.4554C104.982 64.4554 105.445 64.6471 105.787 64.9884C106.128 65.3298 106.32 65.7927 106.32 66.2754V89.1819ZM109.96 84.1405V73.5554H113.6V79.0154C113.595 80.1406 113.243 81.2369 112.591 82.1543C111.94 83.0717 111.021 83.7654 109.96 84.1405Z" fill="black"/>
<path d="M17.1397 55.3553H49.8997C50.3824 55.3553 50.8453 55.1635 51.1866 54.8222C51.5279 54.4809 51.7197 54.018 51.7197 53.5353V36.4145L52.6679 36.9332C52.9451 37.0845 53.2569 37.161 53.5726 37.1553C53.8884 37.1496 54.1972 37.0618 54.4687 36.9006C54.7403 36.7394 54.9652 36.5103 55.1214 36.2359C55.2776 35.9614 55.3597 35.6511 55.3597 35.3353V28.0553C55.3597 27.7283 55.2717 27.4074 55.1049 27.1262C54.938 26.845 54.6985 26.6139 54.4115 26.4573L34.3915 15.5373C34.1241 15.3914 33.8243 15.3149 33.5197 15.3149C33.2151 15.3149 32.9153 15.3914 32.6479 15.5373L26.2397 19.0335V17.1353C26.2397 16.6526 26.0479 16.1897 25.7066 15.8483C25.3653 15.507 24.9024 15.3153 24.4197 15.3153H17.1397C16.657 15.3153 16.1941 15.507 15.8528 15.8483C15.5114 16.1897 15.3197 16.6526 15.3197 17.1353V24.9904L12.6279 26.4573C12.3409 26.6139 12.1014 26.845 11.9345 27.1262C11.7677 27.4074 11.6796 27.7283 11.6797 28.0553V35.3353C11.6796 35.6511 11.7617 35.9614 11.9179 36.2359C12.0742 36.5103 12.2991 36.7394 12.5706 36.9006C12.8422 37.0618 13.151 37.1496 13.4667 37.1553C13.7825 37.161 14.0943 37.0845 14.3715 36.9332L15.3197 36.4145V53.5353C15.3197 54.018 15.5114 54.4809 15.8528 54.8222C16.1941 55.1635 16.657 55.3553 17.1397 55.3553ZM24.4197 51.7153V40.7953H28.0597V51.7153H24.4197ZM48.0797 51.7153H31.6997V38.9753C31.6997 38.4926 31.5079 38.0297 31.1666 37.6883C30.8253 37.347 30.3624 37.1553 29.8797 37.1553H22.5997C22.117 37.1553 21.6541 37.347 21.3128 37.6883C20.9714 38.0297 20.7797 38.4926 20.7797 38.9753V51.7153H18.9597V34.4253L33.5197 26.4828L48.0797 34.4253V51.7153ZM18.9597 18.9553H22.5997V21.0192L18.9597 23.0048V18.9553ZM15.3197 29.1364L33.5197 19.2083L51.7197 29.1364V32.2686L34.3915 22.8173C34.1241 22.6714 33.8243 22.5949 33.5197 22.5949C33.2151 22.5949 32.9153 22.6714 32.6479 22.8173L15.3197 32.2686V29.1364Z" fill="black"/>
<path d="M33.5195 46.2553C33.5195 46.738 33.7113 47.2009 34.0526 47.5422C34.3939 47.8835 34.8568 48.0753 35.3395 48.0753H44.4395C44.9222 48.0753 45.3851 47.8835 45.7265 47.5422C46.0678 47.2009 46.2595 46.738 46.2595 46.2553V38.9753C46.2595 38.4926 46.0678 38.0297 45.7265 37.6883C45.3851 37.347 44.9222 37.1553 44.4395 37.1553H35.3395C34.8568 37.1553 34.3939 37.347 34.0526 37.6883C33.7113 38.0297 33.5195 38.4926 33.5195 38.9753V46.2553ZM37.1595 40.7953H42.6195V44.4353H37.1595V40.7953Z" fill="black"/>
<path d="M68.0987 55.3553H75.3787V51.7153H69.9187V34.4253L84.4787 26.4828L99.0387 34.4253V51.7153H91.7587V55.3553H100.859C101.341 55.3553 101.804 55.1635 102.146 54.8222C102.487 54.4809 102.679 54.018 102.679 53.5353V36.4145L103.627 36.9332C103.904 37.0845 104.216 37.161 104.532 37.1553C104.847 37.1496 105.156 37.0618 105.428 36.9006C105.699 36.7394 105.924 36.5103 106.08 36.2359C106.237 35.9614 106.319 35.6511 106.319 35.3353V28.0553C106.319 27.7283 106.231 27.4074 106.064 27.1262C105.897 26.845 105.657 26.6139 105.37 26.4573L85.3505 15.5373C85.083 15.3914 84.7833 15.3149 84.4787 15.3149C84.174 15.3149 83.8743 15.3914 83.6069 15.5373L77.1987 19.0335V17.1353C77.1987 16.6526 77.0069 16.1897 76.6656 15.8483C76.3243 15.507 75.8614 15.3153 75.3787 15.3153H68.0987C67.616 15.3153 67.1531 15.507 66.8117 15.8483C66.4704 16.1897 66.2787 16.6526 66.2787 17.1353V24.9904L63.5869 26.4573C63.2999 26.6139 63.0603 26.845 62.8935 27.1262C62.7266 27.4074 62.6386 27.7283 62.6387 28.0553V35.3353C62.6386 35.6511 62.7207 35.9614 62.8769 36.2359C63.0331 36.5103 63.2581 36.7394 63.5296 36.9006C63.8012 37.0618 64.11 37.1496 64.4257 37.1553C64.7415 37.161 65.0532 37.0845 65.3305 36.9332L66.2787 36.4145V53.5353C66.2787 54.018 66.4704 54.4809 66.8117 54.8222C67.1531 55.1635 67.616 55.3553 68.0987 55.3553ZM69.9187 18.9553H73.5587V21.0192L69.9187 23.0048V18.9553ZM66.2787 29.1364L84.4787 19.2083L102.679 29.1364V32.2686L85.3505 22.8173C85.083 22.6714 84.7833 22.5949 84.4787 22.5949C84.174 22.5949 83.8743 22.6714 83.6069 22.8173L66.2787 32.2686V29.1364Z" fill="black"/>
</svg>
