<svg width="111" height="132" viewBox="0 0 111 132" fill="none" xmlns="http://www.w3.org/2000/svg">
<path d="M84.3466 74.21L74.2129 84.3438L89.5155 99.6464L99.6492 89.5126L84.3466 74.21Z" fill="#1CAEE4"/>
<path d="M77.0143 81.5443L74.2148 84.3438L89.5175 99.6464L92.317 96.8469L77.0143 81.5443Z" fill="#009ADD"/>
<path d="M110.18 94.9753C110.663 95.4586 110.775 96.2073 110.443 96.8049C108.166 100.905 105.492 104.758 102.465 108.296C101.361 109.589 100.207 110.846 99.0094 112.055C98.4157 112.655 97.4414 112.646 96.8438 112.049L89.9451 105.15C88.0656 103.271 87.4519 100.617 88.0886 98.2233C88.4031 97.0496 89.0245 95.9373 89.9451 95.0167L94.6322 90.3296L95.0311 89.923C95.944 89.0178 97.0563 88.4041 98.2223 88.0896C100.616 87.4529 103.27 88.0666 105.149 89.946L110.18 94.9753Z" fill="#FEDE3A"/>
<path d="M94.631 100.463L102.463 108.295C101.359 109.589 100.205 110.845 99.0074 112.055C98.4137 112.655 97.4394 112.646 96.8419 112.049L89.9431 105.15C88.0636 103.271 87.4499 100.616 88.0867 98.2228C88.4012 97.0491 89.0226 95.9368 89.9431 95.0162L94.6302 90.3291C92.9349 92.0244 92.2675 94.3488 92.6204 96.5428C92.8513 97.9773 93.5187 99.3505 94.631 100.463Z" fill="#E7AD27"/>
<path d="M49.5716 0C22.1929 0 0 22.1929 0 49.5716C0 76.9426 22.1929 99.1356 49.5716 99.1356C60.6796 99.1356 70.9284 95.4841 79.1903 89.324C80.2566 88.5262 81.2846 87.6901 82.2818 86.8155C84.8901 84.5218 87.2528 81.9673 89.324 79.1826C95.4917 70.9207 99.1432 60.6719 99.1432 49.5716C99.1432 22.1929 76.9503 0 49.5716 0ZM49.5716 86.3706C29.2428 86.3706 12.765 69.8928 12.765 49.5716C12.765 29.2428 29.2428 12.765 49.5716 12.765C69.9004 12.765 86.3783 29.2428 86.3783 49.5716C86.3783 69.8928 69.9004 86.3706 49.5716 86.3706Z" fill="#1CAEE4"/>
<path d="M49.5727 7.16504C26.1524 7.16504 7.16602 26.1514 7.16602 49.5717C7.16602 72.992 26.1524 91.9784 49.5727 91.9784C59.2155 91.9784 68.0988 88.7641 75.2177 83.3482C75.2253 83.3482 75.2253 83.3406 75.233 83.3406C75.9081 82.8266 76.5601 82.2896 77.2045 81.7373C79.4752 79.7888 81.5388 77.6025 83.3492 75.2167C88.7651 68.0978 91.9794 59.2145 91.9794 49.5717C91.9794 26.1514 72.993 7.16504 49.5727 7.16504ZM49.5727 86.3707C29.2439 86.3707 12.766 69.8929 12.766 49.5717C12.766 29.2429 29.2439 12.7651 49.5727 12.7651C69.9015 12.7651 86.3793 29.2429 86.3793 49.5717C86.3793 69.8929 69.9015 86.3707 49.5727 86.3707Z" fill="#009ADD"/>
<path d="M86.379 49.5718C86.379 58.2863 83.3488 66.2798 78.3011 72.5779C78.2704 72.6162 78.2474 72.6469 78.2167 72.6853C78.071 72.854 77.9329 73.0305 77.7948 73.1916C77.7641 73.2299 77.7335 73.2606 77.7028 73.299C77.4113 73.6519 77.1121 73.9894 76.8052 74.3269C74.9181 76.4058 72.7932 78.2623 70.4765 79.8579C70.1159 80.1034 69.7553 80.3488 69.3871 80.579C68.7888 80.9702 68.1827 81.3308 67.5614 81.676C67.2162 81.8678 66.871 82.0595 66.5258 82.236C65.8047 82.6119 65.0682 82.9647 64.3164 83.2946C64.3088 83.3023 64.2934 83.3023 64.2857 83.31C61.2019 84.6601 57.8879 85.596 54.4282 86.0563C52.8402 86.2634 51.2216 86.3708 49.5723 86.3708C47.8923 86.3708 46.2353 86.2557 44.609 86.0409C41.1876 85.5806 37.9197 84.6448 34.8588 83.31C34.8512 83.3023 34.8358 83.3023 34.8281 83.2946C34.0533 82.9571 33.2939 82.5965 32.5498 82.1976C32.1816 82.0135 31.821 81.8141 31.4681 81.6146C30.8621 81.2771 30.2714 80.9165 29.6884 80.5406C29.3125 80.3028 28.9366 80.0573 28.5684 79.8042C26.2517 78.1779 24.1191 76.2984 22.232 74.2042C21.9328 73.8743 21.6413 73.5444 21.3651 73.1992C21.3421 73.1762 21.3191 73.1456 21.3037 73.1225C21.1503 72.9461 20.9969 72.762 20.8588 72.5779C20.8358 72.5549 20.8204 72.5242 20.7974 72.5012C15.7651 66.2184 12.7656 58.2403 12.7656 49.5718C12.7656 29.243 29.2435 12.7651 49.5723 12.7651C69.9011 12.7651 86.379 29.243 86.379 49.5718Z" fill="#136DA0"/>
<path d="M56.1351 45.2959H42.9375V58.4935H56.1351V45.2959Z" fill="#E7AD27"/>
<path d="M38.7375 37.3269C39.0075 39.2532 37.9903 40.9877 36.466 41.2009C34.9418 41.4149 33.4873 40.0265 33.2173 38.1002C32.9472 36.174 33.9644 34.4395 35.4887 34.2262C37.013 34.013 38.4675 35.4007 38.7375 37.3269Z" fill="#F6CA14"/>
<path d="M60.3364 37.3269C60.0664 39.2532 61.0836 40.9877 62.6079 41.2009C64.1321 41.4149 65.5866 40.0265 65.8566 38.1002C66.1267 36.174 65.1095 34.4395 63.5852 34.2262C62.0609 34.013 60.6064 35.4007 60.3364 37.3269Z" fill="#F6CA14"/>
<path d="M63.2945 35.2112C63.2945 44.2678 57.1353 51.61 49.5369 51.61C41.9385 51.61 35.7793 44.2678 35.7793 35.2112C35.7793 26.1545 41.9385 20.7209 49.5369 20.7209C57.1353 20.7209 63.2945 26.1545 63.2945 35.2112Z" fill="#FDDD3A"/>
<path d="M49.5369 50.1878C42.1395 50.1878 36.1084 43.2277 35.7946 34.5024C35.7862 34.7364 35.7793 34.9719 35.7793 35.2113C35.7793 44.2679 41.9385 51.6101 49.5369 51.6101C57.1353 51.6101 63.2945 44.2679 63.2945 35.2113C63.2945 34.9719 63.2876 34.7364 63.2792 34.5024C62.9654 43.2277 56.9343 50.1878 49.5369 50.1878Z" fill="#F6CA14"/>
<path d="M63.2577 36.3526C62.7982 28.5655 57.6178 23.7111 51.042 23.0706C50.9514 23.6904 50.9023 24.3233 50.9023 24.9684C50.9023 31.8741 56.2998 37.514 63.1058 37.9114C63.1763 37.3989 63.227 36.8796 63.2577 36.3526Z" fill="#F6CA14"/>
<path d="M74.9559 61.6771C74.6567 60.6952 74.0967 59.836 73.3756 59.1763C73.3066 59.1149 73.2299 59.0459 73.1608 58.9922C73.1225 58.9538 73.0764 58.9155 73.0304 58.8848C72.9921 58.8541 72.9537 58.8234 72.9077 58.7927C72.9077 58.7927 72.9077 58.7851 72.9 58.7851C72.8847 58.7697 72.8693 58.762 72.8463 58.7467C72.7773 58.693 72.7082 58.647 72.6315 58.601C72.6315 58.5933 72.6238 58.5933 72.6238 58.5933C72.6085 58.5779 72.5855 58.5626 72.5625 58.5549C72.5548 58.5473 72.5471 58.5396 72.5318 58.5319C72.5011 58.5089 72.4627 58.4936 72.4321 58.4705C72.409 58.4552 72.386 58.4475 72.363 58.4322C72.3553 58.4245 72.34 58.4168 72.3323 58.4168C72.317 58.4015 72.294 58.3938 72.2786 58.3862C72.271 58.3785 72.2556 58.3708 72.248 58.3631C72.2403 58.3631 72.2403 58.3555 72.2326 58.3555C72.2249 58.3555 72.2173 58.3478 72.2096 58.3478C72.1866 58.3325 72.1559 58.3171 72.1329 58.3094C72.1252 58.3018 72.1252 58.3018 72.1175 58.3018C72.0945 58.2864 72.0715 58.2788 72.0485 58.2634C72.0101 58.2481 71.9718 58.2251 71.9258 58.2097C71.9181 58.202 71.9104 58.1944 71.8951 58.1944L71.8874 58.1867C71.8721 58.1867 71.8644 58.179 71.849 58.1714C71.803 58.1483 71.7493 58.1253 71.6879 58.1023C71.6726 58.0946 71.6496 58.087 71.6266 58.0793C71.5345 58.0409 71.4348 58.0026 71.3351 57.9719L71.3274 57.9642C71.3121 57.9566 71.2891 57.9489 71.266 57.9489C71.2584 57.9489 71.2507 57.9412 71.2353 57.9412C71.2353 57.9412 71.2277 57.9335 71.22 57.9335C71.197 57.9259 71.1663 57.9182 71.1356 57.9105C71.1126 57.9029 71.0896 57.8952 71.0589 57.8875H71.0512V57.8799C71.0359 57.8799 71.0206 57.8799 71.0129 57.8722H71.0052C70.9822 57.8645 70.9668 57.8645 70.9438 57.8568C70.9285 57.8568 70.9208 57.8492 70.9055 57.8492C70.8825 57.8415 70.8595 57.8338 70.8441 57.8338C70.8288 57.8262 70.8134 57.8262 70.7981 57.8185C70.7827 57.8185 70.7597 57.8108 70.7367 57.8108C70.7214 57.8031 70.706 57.8031 70.6907 57.7955C70.6754 57.7955 70.6523 57.7878 70.6293 57.7878C70.614 57.7801 70.6063 57.7801 70.591 57.7801C70.5679 57.7725 70.5449 57.7725 70.5219 57.7648C70.5066 57.7648 70.4989 57.7648 70.4836 57.7571C70.4606 57.7571 70.4375 57.7494 70.4068 57.7494C70.3992 57.7494 70.3915 57.7418 70.3762 57.7418C70.3455 57.7341 70.3071 57.7341 70.2764 57.7264H70.2688L69.563 57.6344L61.7844 56.6064L60.6107 56.453H60.5953C60.5953 56.453 60.603 56.453 60.5953 56.4453L56.1383 55.8623L49.5717 54.9878H49.495L42.9361 55.8623L38.4791 56.4453C38.4714 56.453 38.4791 56.453 38.4791 56.453H38.4638L37.2901 56.6064L28.8057 57.7264C28.7673 57.7341 28.7366 57.7341 28.6983 57.7418C28.6906 57.7418 28.6753 57.7494 28.6676 57.7494C28.6446 57.7494 28.6139 57.7571 28.5909 57.7571C28.5755 57.7648 28.5679 57.7648 28.5525 57.7648C28.5295 57.7725 28.5065 57.7725 28.4835 57.7801C28.4681 57.7801 28.4605 57.7801 28.4451 57.7878C28.4298 57.7878 28.4144 57.7878 28.3991 57.7955C28.3837 57.7955 28.3761 57.7955 28.3684 57.8031C28.3607 57.8031 28.3531 57.8031 28.3377 57.8108C28.3147 57.8108 28.2917 57.8185 28.2763 57.8185C28.261 57.8262 28.2457 57.8262 28.2303 57.8338C28.215 57.8338 28.192 57.8415 28.1689 57.8492C28.1613 57.8492 28.1613 57.8492 28.1536 57.8568H28.1306C28.1076 57.8645 28.0922 57.8645 28.0692 57.8722C28.0539 57.8722 28.0462 57.8799 28.0309 57.8799C28.0079 57.8875 27.9848 57.8952 27.9618 57.9029C27.9542 57.9029 27.9542 57.9029 27.9542 57.9029C27.9465 57.9029 27.9388 57.9105 27.9388 57.9105C27.9388 57.9105 27.9311 57.9105 27.9235 57.9105C27.9005 57.9182 27.8774 57.9259 27.8544 57.9335C27.8468 57.9412 27.8314 57.9412 27.8237 57.9412C27.8161 57.9412 27.8161 57.9489 27.8084 57.9489C27.7931 57.9566 27.7777 57.9566 27.77 57.9642C27.7624 57.9642 27.7547 57.9642 27.747 57.9719C27.7394 57.9719 27.7317 57.9719 27.7317 57.9719C27.7163 57.9796 27.701 57.9796 27.6933 57.9872C27.6703 57.9949 27.6473 58.0026 27.6243 58.0103C27.5936 58.0179 27.5706 58.0256 27.5476 58.041L27.5246 58.0486C27.5016 58.0563 27.4709 58.064 27.4479 58.0793C27.3405 58.1177 27.2331 58.1637 27.1333 58.2097C27.095 58.2251 27.0643 58.2481 27.0336 58.2634C27.0183 58.2711 27.0029 58.2788 26.9876 58.2864C26.9646 58.2941 26.9492 58.3018 26.9339 58.3094C26.9109 58.3171 26.8955 58.3248 26.8725 58.3401C26.8648 58.3478 26.8572 58.3555 26.8495 58.3555L26.8418 58.3631H26.8342C26.8265 58.3631 26.8111 58.3708 26.8035 58.3785C26.8035 58.3862 26.7958 58.3862 26.7958 58.3862C26.7728 58.3938 26.7498 58.4092 26.7268 58.4245C26.6961 58.4399 26.6731 58.4552 26.65 58.4705H26.6424C26.627 58.4782 26.6117 58.4936 26.5963 58.5012C26.581 58.5089 26.558 58.5242 26.5426 58.5319C26.5273 58.5396 26.5196 58.5473 26.512 58.5549C26.4889 58.5626 26.4659 58.5779 26.4506 58.5933C26.4506 58.5933 26.4429 58.5933 26.4429 58.601C26.3662 58.647 26.2972 58.693 26.2281 58.7467C26.1974 58.762 26.1744 58.7851 26.1514 58.8004C26.1361 58.8157 26.1207 58.8234 26.1054 58.8388C26.0824 58.8541 26.067 58.8694 26.044 58.8848C25.998 58.9155 25.952 58.9538 25.9136 58.9922C25.8752 59.0152 25.8446 59.0459 25.8139 59.0766C25.7755 59.1073 25.7372 59.1379 25.6988 59.1763C24.97 59.836 24.4254 60.6952 24.1185 61.6771L20.7969 72.5013C20.8199 72.5243 20.8352 72.555 20.8582 72.578C20.9963 72.7621 21.1498 72.9462 21.3032 73.1226C21.3185 73.1456 21.3415 73.1763 21.3646 73.1993C21.6407 73.5445 21.9322 73.8744 22.2314 74.2043C24.1185 76.2985 26.2511 78.178 28.5679 79.8043C28.9361 80.0574 29.312 80.3029 29.6879 80.5407C30.2709 80.9166 30.8616 81.2772 31.4676 81.6147C31.8205 81.8142 32.181 82.0136 32.5492 82.1977C33.2933 82.5966 34.0528 82.9572 34.8276 83.2947C34.8353 83.3024 34.8506 83.3024 34.8583 83.3101C37.9191 84.6448 41.1871 85.5807 44.6084 86.041C46.2347 86.2558 47.8917 86.3709 49.5717 86.3709C51.2211 86.3709 52.8397 86.2635 54.4276 86.0563C57.8874 85.5961 61.2014 84.6602 64.2852 83.3101C64.2929 83.3024 64.3082 83.3024 64.3159 83.2947C65.0677 82.9648 65.8041 82.612 66.5252 82.2361C66.8704 82.0596 67.2156 81.8679 67.5608 81.6761C68.1822 81.3309 68.7882 80.9703 69.3866 80.5791C69.7548 80.3489 70.1153 80.1035 70.4759 79.858C72.7926 78.2624 74.9176 76.4059 76.8047 74.327C77.1115 73.9895 77.4107 73.6519 77.7022 73.2991C77.7329 73.2607 77.7636 73.23 77.7943 73.1917C77.9323 73.0306 78.0704 72.8541 78.2162 72.6854C78.2469 72.647 78.2699 72.6163 78.3006 72.578L74.9559 61.6771Z" fill="#E6E7E8"/>
<path d="M74.9559 61.6771L78.3006 72.578C78.2699 72.6163 78.2469 72.647 78.2162 72.6854C78.0704 72.8541 77.9323 73.0306 77.7943 73.1917L74.9559 63.9478C74.5877 62.7588 73.8512 61.7462 72.877 61.0404C72.7773 60.9714 72.6775 60.9023 72.5701 60.8333C72.4704 60.7642 72.363 60.7029 72.248 60.6492C71.7647 60.3807 71.2353 60.1812 70.6753 60.0738C70.5833 60.0508 70.4912 60.0355 70.3992 60.0278C70.3608 60.0201 70.3148 60.0125 70.2688 60.0048L60.4572 58.7083L58.8233 58.4936L58.4167 58.4399L57.6342 58.3325L56.1383 58.1407L52.1493 57.6114L51.3208 57.504H51.3131L49.5334 57.2662L47.7536 57.504L46.9252 57.6114H46.9175L42.9361 58.1407L41.4402 58.3325L40.6577 58.4399L40.2512 58.4936L38.6172 58.7083L28.8057 60.0048C28.7596 60.0125 28.7136 60.0201 28.6753 60.0278C28.5832 60.0355 28.4911 60.0508 28.3991 60.0738C28.3684 60.0815 28.3377 60.0815 28.3147 60.0892C28.1766 60.1199 28.0385 60.1505 27.9081 60.1966C27.8774 60.2042 27.8468 60.2119 27.8161 60.2273C27.6857 60.2656 27.5552 60.3116 27.4248 60.3653C26.9876 60.5341 26.5733 60.7642 26.1974 61.0404C25.2232 61.7462 24.4867 62.7588 24.1185 63.9478L21.3032 73.1226C21.1498 72.9462 20.9963 72.7621 20.8582 72.578C20.8352 72.555 20.8199 72.5243 20.7969 72.5013L24.1185 61.6771C24.4254 60.6952 24.97 59.836 25.6988 59.1763C25.7372 59.1379 25.7755 59.1073 25.8139 59.0766C25.8446 59.0459 25.8752 59.0152 25.9136 58.9922C25.952 58.9538 25.998 58.9155 26.044 58.8848C26.067 58.8694 26.0824 58.8541 26.1054 58.8388C26.1207 58.8234 26.1361 58.8157 26.1514 58.8004C26.1744 58.7851 26.1974 58.762 26.2281 58.7467C26.2972 58.693 26.3662 58.647 26.4429 58.601C26.4429 58.5933 26.4506 58.5933 26.4506 58.5933C26.4659 58.5779 26.4889 58.5626 26.512 58.5549C26.5196 58.5473 26.5273 58.5396 26.5426 58.5319C26.558 58.5242 26.581 58.5089 26.5963 58.5012C26.6117 58.4936 26.627 58.4782 26.6424 58.4705H26.65C26.6731 58.4552 26.6961 58.4399 26.7268 58.4245C26.7498 58.4092 26.7728 58.3938 26.7958 58.3862C26.7958 58.3862 26.8035 58.3862 26.8035 58.3785C26.8111 58.3708 26.8265 58.3631 26.8342 58.3631H26.8418L26.8495 58.3555C26.8572 58.3555 26.8648 58.3478 26.8725 58.3401C26.8955 58.3248 26.9109 58.3171 26.9339 58.3094C26.9492 58.3018 26.9646 58.2941 26.9876 58.2864C27.0029 58.2788 27.0183 58.2711 27.0336 58.2634C27.0643 58.2481 27.095 58.2251 27.1333 58.2097C27.2331 58.1637 27.3405 58.1177 27.4479 58.0793C27.4709 58.064 27.5016 58.0563 27.5246 58.0486L27.5476 58.041C27.5706 58.0256 27.5936 58.0179 27.6243 58.0103C27.6473 58.0026 27.6703 57.9949 27.6933 57.9872C27.701 57.9796 27.7163 57.9796 27.7317 57.9719C27.7317 57.9719 27.7394 57.9719 27.747 57.9719C27.7547 57.9642 27.7624 57.9642 27.77 57.9642C27.7777 57.9566 27.7931 57.9566 27.8084 57.9489C27.8161 57.9489 27.8161 57.9412 27.8237 57.9412C27.8314 57.9412 27.8468 57.9412 27.8544 57.9336C27.8774 57.9259 27.9005 57.9182 27.9235 57.9105C27.9311 57.9105 27.9388 57.9105 27.9388 57.9105C27.9388 57.9105 27.9465 57.9029 27.9542 57.9029C27.9542 57.9029 27.9542 57.9029 27.9618 57.9029C27.9848 57.8952 28.0079 57.8875 28.0309 57.8799C28.0462 57.8799 28.0539 57.8722 28.0692 57.8722C28.0922 57.8645 28.1076 57.8645 28.1306 57.8568H28.1536C28.1613 57.8492 28.1613 57.8492 28.1689 57.8492C28.192 57.8415 28.215 57.8338 28.2303 57.8338C28.2457 57.8262 28.261 57.8262 28.2763 57.8185C28.2917 57.8185 28.3147 57.8108 28.3377 57.8108C28.3531 57.8031 28.3607 57.8031 28.3684 57.8031C28.3761 57.7955 28.3837 57.7955 28.3991 57.7955C28.4144 57.7878 28.4298 57.7878 28.4451 57.7878C28.4605 57.7801 28.4681 57.7801 28.4835 57.7801C28.5065 57.7725 28.5295 57.7725 28.5525 57.7648C28.5679 57.7648 28.5755 57.7648 28.5909 57.7571C28.6139 57.7571 28.6446 57.7494 28.6676 57.7494C28.6753 57.7494 28.6906 57.7418 28.6983 57.7418C28.7366 57.7341 28.7673 57.7341 28.8057 57.7264L37.2901 56.6064L38.4638 56.453H38.4791C38.4791 56.453 38.4714 56.453 38.4791 56.4453L42.9361 55.8623L49.495 54.9878H49.5717L56.1383 55.8623L60.5953 56.4453C60.603 56.453 60.5953 56.453 60.5953 56.453H60.6107L61.7844 56.6064L69.563 57.6344L70.2688 57.7264H70.2764C70.3071 57.7341 70.3455 57.7341 70.3762 57.7418C70.3915 57.7418 70.3992 57.7494 70.4068 57.7494C70.4375 57.7494 70.4606 57.7571 70.4836 57.7571C70.4989 57.7648 70.5066 57.7648 70.5219 57.7648C70.5449 57.7725 70.5679 57.7725 70.591 57.7801C70.6063 57.7801 70.614 57.7801 70.6293 57.7878C70.6523 57.7878 70.6754 57.7955 70.6907 57.7955C70.706 57.8031 70.7214 57.8031 70.7367 57.8108C70.7597 57.8108 70.7827 57.8185 70.7981 57.8185C70.8134 57.8262 70.8288 57.8262 70.8441 57.8338C70.8595 57.8338 70.8825 57.8415 70.9055 57.8492C70.9208 57.8492 70.9285 57.8568 70.9438 57.8568C70.9668 57.8645 70.9822 57.8645 71.0052 57.8722H71.0129C71.0206 57.8799 71.0359 57.8799 71.0512 57.8799V57.8875H71.0589C71.0896 57.8952 71.1126 57.9029 71.1356 57.9105C71.1663 57.9182 71.197 57.9259 71.22 57.9336C71.2277 57.9336 71.2353 57.9412 71.2353 57.9412C71.2507 57.9412 71.2584 57.9489 71.266 57.9489C71.2891 57.9489 71.3121 57.9566 71.3274 57.9642L71.3351 57.9719C71.4348 58.0026 71.5345 58.0409 71.6266 58.0793C71.6496 58.087 71.6726 58.0946 71.6879 58.1023C71.7493 58.1253 71.803 58.1483 71.849 58.1714C71.8644 58.179 71.8721 58.1867 71.8874 58.1867L71.8951 58.1944C71.9104 58.1944 71.9181 58.202 71.9258 58.2097C71.9718 58.2251 72.0101 58.2481 72.0485 58.2634C72.0715 58.2788 72.0945 58.2864 72.1175 58.3018C72.1252 58.3018 72.1252 58.3018 72.1329 58.3094C72.1559 58.3171 72.1866 58.3325 72.2096 58.3478C72.2173 58.3478 72.2249 58.3555 72.2326 58.3555C72.2403 58.3555 72.2403 58.3631 72.248 58.3631C72.2556 58.3708 72.271 58.3785 72.2786 58.3862C72.294 58.3938 72.317 58.4015 72.3323 58.4168C72.34 58.4168 72.3553 58.4245 72.363 58.4322C72.386 58.4475 72.409 58.4552 72.4321 58.4705C72.4627 58.4936 72.5011 58.5089 72.5318 58.5319C72.5471 58.5396 72.5548 58.5473 72.5625 58.5549C72.5855 58.5626 72.6085 58.5779 72.6238 58.5933C72.6238 58.5933 72.6315 58.5933 72.6315 58.601C72.7082 58.647 72.7773 58.693 72.8463 58.7467C72.8693 58.762 72.8847 58.7697 72.9 58.7851C72.9077 58.7851 72.9077 58.7927 72.9077 58.7927C72.9537 58.8234 72.9921 58.8541 73.0304 58.8848C73.0764 58.9155 73.1225 58.9538 73.1608 58.9922C73.2299 59.0459 73.3066 59.1149 73.3756 59.1763C74.0967 59.836 74.6567 60.6952 74.9559 61.6771Z" fill="white"/>
<path d="M73.376 59.1764L72.8774 61.0405L70.4303 70.1309C69.7399 72.7008 69.387 75.355 69.387 78.017V80.5792C68.7886 80.9704 68.1826 81.3309 67.5612 81.6762C67.216 81.8679 66.8708 82.0597 66.5256 82.2361C65.8045 82.612 65.0681 82.9649 64.3163 83.2948C64.3086 83.3025 64.2933 83.3025 64.2856 83.3101C61.2018 84.6603 57.8878 85.5962 54.428 86.0564C52.8401 86.2636 51.2215 86.371 49.5722 86.371C47.8922 86.371 46.2352 86.2559 44.6089 86.0411C41.1875 85.5808 37.9195 84.6449 34.8587 83.3101C34.851 83.3025 34.8357 83.3025 34.828 83.2948C34.0532 82.9573 33.2938 82.5967 32.5496 82.1978C32.1814 82.0137 31.8209 81.8142 31.468 81.6148C30.862 81.2772 30.2713 80.9167 29.6883 80.5408V78.017C29.6883 75.355 29.3354 72.7008 28.645 70.1309L26.1979 61.0405L25.6992 59.1764C25.7376 59.138 25.7759 59.1073 25.8143 59.0766C25.845 59.046 25.8757 59.0153 25.914 58.9923C25.9524 58.9539 25.9984 58.9156 26.0444 58.8849C26.0674 58.8695 26.0828 58.8542 26.1058 58.8388C26.1211 58.8235 26.1365 58.8158 26.1518 58.8005C26.1748 58.7851 26.1979 58.7621 26.2285 58.7468C26.2976 58.6931 26.3666 58.6471 26.4433 58.601C26.4433 58.5934 26.451 58.5934 26.451 58.5934C26.4663 58.578 26.4894 58.5627 26.5124 58.555C26.52 58.5473 26.5277 58.5397 26.5431 58.532C26.5584 58.5243 26.5814 58.509 26.5968 58.5013C26.6121 58.4936 26.6274 58.4783 26.6428 58.4706H26.6505C26.6735 58.4553 26.6965 58.4399 26.7272 58.4246C26.7502 58.4092 26.7732 58.3939 26.7962 58.3862C26.7962 58.3862 26.8039 58.3862 26.8039 58.3786C26.8116 58.3709 26.8269 58.3632 26.8346 58.3632H26.8422L26.8499 58.3555C26.8576 58.3555 26.8653 58.3479 26.8729 58.3402C26.8959 58.3249 26.9113 58.3172 26.9343 58.3095C26.9496 58.3019 26.965 58.2942 26.988 58.2865C27.0033 58.2788 27.0187 58.2712 27.034 58.2635C27.0647 58.2481 27.0954 58.2251 27.1337 58.2098C27.2335 58.1638 27.3409 58.1177 27.4483 58.0794C27.4713 58.064 27.502 58.0564 27.525 58.0487L27.548 58.041C27.571 58.0257 27.594 58.018 27.6247 58.0103C27.6477 58.0027 27.6707 57.995 27.6937 57.9873C27.7014 57.9797 27.7168 57.9797 27.7321 57.972C27.7321 57.972 27.7398 57.972 27.7474 57.972C27.7551 57.9643 27.7628 57.9643 27.7705 57.9643C27.7781 57.9566 27.7935 57.9566 27.8088 57.949C27.8165 57.949 27.8165 57.9413 27.8242 57.9413C27.8318 57.9413 27.8472 57.9413 27.8548 57.9336C27.8702 57.926 27.8855 57.926 27.9085 57.926C27.9162 57.9183 27.9239 57.9106 27.9392 57.9106C27.9392 57.9106 27.9469 57.9029 27.9546 57.9029C27.9546 57.9029 27.9546 57.9029 27.9622 57.9029C27.9929 57.8876 28.0313 57.8799 28.0696 57.8799C28.0927 57.8646 28.1233 57.8569 28.154 57.8569C28.1617 57.8492 28.1617 57.8492 28.1694 57.8492C28.1924 57.8416 28.2154 57.8339 28.2307 57.8339C28.2461 57.8262 28.2614 57.8262 28.2768 57.8186C28.2921 57.8186 28.3151 57.8109 28.3381 57.8109C28.3535 57.8032 28.3611 57.8032 28.3688 57.8032C28.3765 57.7955 28.3842 57.7955 28.3995 57.7955C28.4148 57.7879 28.4302 57.7879 28.4455 57.7879C28.4609 57.7802 28.4685 57.7802 28.4839 57.7802C28.5069 57.7725 28.5299 57.7725 28.5529 57.7649C28.5683 57.7649 28.5759 57.7649 28.5913 57.7572C28.6143 57.7572 28.645 57.7495 28.668 57.7495C28.6757 57.7495 28.691 57.7418 28.6987 57.7418C28.737 57.7342 28.7677 57.7342 28.8061 57.7265L37.2905 56.6065L38.4642 56.4531H38.4795L40.1212 56.2383L41.4406 58.3325L42.1924 59.5216V59.5292L43.6653 61.8613L48.7283 69.8931C48.9201 70.1923 49.2269 70.338 49.5338 70.338C49.8483 70.338 50.1552 70.1923 50.3469 69.8931L55.41 61.8613L56.8829 59.5292V59.5216L57.6346 58.3325L58.9541 56.2383L60.5957 56.4531H60.6111L61.7848 56.6065V56.6142L69.5634 57.6344L70.2692 57.7265H70.2769C70.3075 57.7342 70.3459 57.7342 70.3766 57.7418C70.3919 57.7418 70.3996 57.7495 70.4073 57.7495C70.4379 57.7495 70.461 57.7572 70.484 57.7572C70.4993 57.7649 70.507 57.7649 70.5223 57.7649C70.5453 57.7725 70.5684 57.7725 70.5914 57.7802C70.6067 57.7802 70.6144 57.7802 70.6297 57.7879C70.6527 57.7879 70.6758 57.7955 70.6911 57.7955C70.7064 57.8032 70.7218 57.8032 70.7371 57.8109C70.7601 57.8109 70.7832 57.8186 70.7985 57.8186C70.8138 57.8262 70.8292 57.8262 70.8445 57.8339C70.8599 57.8339 70.8829 57.8416 70.9059 57.8492C70.9212 57.8492 70.9289 57.8569 70.9442 57.8569C70.9673 57.8569 70.9903 57.8646 71.0056 57.8799C71.021 57.8799 71.044 57.8876 71.0517 57.8876H71.0593C71.09 57.8953 71.113 57.9029 71.136 57.9106C71.1667 57.9183 71.1974 57.926 71.2204 57.9336C71.2281 57.9336 71.2358 57.9413 71.2358 57.9413C71.2511 57.9413 71.2588 57.949 71.2664 57.949C71.2895 57.9566 71.3125 57.9643 71.3355 57.972C71.4352 58.0027 71.5349 58.041 71.627 58.0794C71.65 58.0871 71.673 58.0947 71.6884 58.1024C71.7497 58.1254 71.8034 58.1484 71.8495 58.1714C71.8648 58.1791 71.8725 58.1868 71.8878 58.1868L71.8955 58.1945C71.9108 58.1945 71.9185 58.2021 71.9262 58.2098C71.9722 58.2251 72.0106 58.2481 72.0489 58.2635C72.0719 58.2788 72.0949 58.2865 72.118 58.3018C72.1256 58.3018 72.1256 58.3019 72.1333 58.3095C72.1563 58.3172 72.187 58.3325 72.21 58.3479C72.2177 58.3479 72.2253 58.3555 72.233 58.3555C72.2407 58.3555 72.2407 58.3632 72.2484 58.3632C72.256 58.3709 72.2714 58.3786 72.279 58.3862C72.2944 58.3939 72.3174 58.4016 72.3328 58.4169C72.3404 58.4169 72.3558 58.4246 72.3634 58.4323C72.3864 58.4476 72.4095 58.4553 72.4325 58.4706C72.4632 58.4936 72.5015 58.509 72.5322 58.532C72.5475 58.5397 72.5552 58.5473 72.5629 58.555C72.5859 58.5627 72.6089 58.578 72.6243 58.5934C72.6243 58.5934 72.6319 58.5934 72.6319 58.601C72.7086 58.6471 72.7777 58.6931 72.8467 58.7468C72.8697 58.7621 72.8851 58.7698 72.9004 58.7851C72.9081 58.7851 72.9081 58.7928 72.9081 58.7928C72.9541 58.8235 72.9925 58.8542 73.0308 58.8849C73.0769 58.9156 73.1229 58.9539 73.1612 58.9923C73.2303 59.046 73.307 59.115 73.376 59.1764Z" fill="#1CAEE4"/>
<path d="M58.9569 56.2344L50.3452 69.8946C50.158 70.1914 49.8473 70.3403 49.5366 70.3403C49.2259 70.3403 48.916 70.1914 48.7281 69.8946L40.1163 56.2344L37.291 56.6072L48.231 73.9603C48.534 74.4406 49.0357 74.6807 49.5366 74.6807C50.0383 74.6807 50.5393 74.4406 50.8423 73.9603L61.7823 56.6072L58.9569 56.2344Z" fill="#009ADD"/>
<path d="M72.3382 58.4175C72.3351 58.416 72.332 58.4137 72.3282 58.4122C72.3006 58.3968 72.2737 58.3815 72.2461 58.3669C72.2415 58.3646 72.2369 58.3623 72.2323 58.3592C72.2039 58.3439 72.1763 58.3293 72.1479 58.3147C72.1456 58.3132 72.1433 58.3124 72.141 58.3109C72.1111 58.2956 72.0804 58.2802 72.0497 58.2649C72.0482 58.2641 72.0467 58.2634 72.0451 58.2626C72.0137 58.2472 71.9822 58.2319 71.95 58.2173L71.9485 58.2166C71.9163 58.2012 71.884 58.1866 71.8518 58.1721L71.8503 58.1713C71.7191 58.113 71.5849 58.0593 71.4483 58.0102C71.4453 58.0094 71.443 58.0079 71.4399 58.0071C71.41 57.9964 71.38 57.9864 71.3501 57.9764C71.3417 57.9734 71.334 57.9711 71.3256 57.9688C71.3003 57.9603 71.2749 57.9519 71.2489 57.9442C71.2389 57.9412 71.2289 57.9381 71.2189 57.935C71.1952 57.9274 71.1714 57.9204 71.1476 57.9135C71.1361 57.9105 71.1254 57.9074 71.1139 57.9036C71.0908 57.8967 71.0686 57.8905 71.0456 57.8844C71.0333 57.8813 71.021 57.8775 71.008 57.8744C70.9857 57.8683 70.9635 57.8629 70.9412 57.8568C70.929 57.8537 70.9167 57.8506 70.9044 57.8476C70.883 57.8422 70.8607 57.8368 70.8392 57.8322C70.8254 57.8292 70.8108 57.8253 70.797 57.8223C70.7771 57.8177 70.7571 57.8131 70.7364 57.8092C70.7218 57.8061 70.7065 57.8031 70.6919 57.8C70.6712 57.7954 70.6497 57.7916 70.629 57.7877C70.6152 57.7854 70.6014 57.7824 70.5876 57.7801C70.5646 57.7755 70.5416 57.7716 70.5186 57.7678C70.5063 57.7655 70.4932 57.7632 70.481 57.7609C70.4564 57.757 70.4326 57.7532 70.4081 57.7494C70.3966 57.7478 70.3858 57.7455 70.3743 57.744C70.3406 57.7386 70.3061 57.734 70.2723 57.7302C70.2708 57.7302 70.2692 57.7294 70.2669 57.7294L69.5627 57.6366L58.9549 56.2358L57.6309 58.3362L70.2677 60.0047C71.2297 60.1275 72.1211 60.4919 72.8744 61.0396L73.3753 59.1747C73.0854 58.9085 72.7685 58.6722 72.4295 58.4712C72.4272 58.4705 72.4256 58.4689 72.4233 58.4674C72.3957 58.4498 72.3673 58.4337 72.3382 58.4175Z" fill="#27C1E6"/>
<path d="M73.3778 59.1762L72.8791 61.0403L70.432 70.1307C69.7416 72.7006 69.3887 75.3548 69.3887 78.0168V80.579C68.7904 80.9702 68.1843 81.3307 67.563 81.676C67.2178 81.8677 66.8725 82.0595 66.5273 82.236V78.0168C66.5273 75.3548 66.8726 72.7006 67.5706 70.1307L70.4013 60.0277L71.0074 57.8797V57.8721H71.015C71.0304 57.8797 71.038 57.8797 71.0534 57.8874H71.0611C71.0917 57.8951 71.1147 57.9028 71.1378 57.9104C71.1684 57.9181 71.1991 57.9258 71.2221 57.9334C71.2298 57.9334 71.2375 57.9411 71.2375 57.9411C71.2528 57.9411 71.2605 57.9488 71.2682 57.9488C71.2912 57.9565 71.3142 57.9641 71.3372 57.9718C71.4369 58.0025 71.5367 58.0408 71.6287 58.0792C71.6517 58.0869 71.6747 58.0945 71.6901 58.1022C71.7515 58.1252 71.8052 58.1482 71.8512 58.1712C71.8665 58.1789 71.8742 58.1866 71.8896 58.1866L71.8972 58.1943C71.9126 58.1943 71.9202 58.2019 71.9279 58.2096C71.9739 58.2249 72.0123 58.248 72.0506 58.2633C72.0737 58.2786 72.0967 58.2863 72.1197 58.3017C72.1274 58.3017 72.1274 58.3017 72.135 58.3093C72.158 58.317 72.1887 58.3323 72.2117 58.3477C72.2194 58.3477 72.2271 58.3554 72.2348 58.3554C72.2424 58.3554 72.2424 58.363 72.2501 58.363C72.2578 58.3707 72.2731 58.3784 72.2808 58.386C72.2961 58.3937 72.3191 58.4014 72.3345 58.4167C72.3422 58.4167 72.3575 58.4244 72.3652 58.4321C72.3882 58.4474 72.4112 58.4551 72.4342 58.4704C72.4649 58.4934 72.5032 58.5088 72.5339 58.5318C72.5493 58.5395 72.5569 58.5471 72.5646 58.5548C72.5876 58.5625 72.6106 58.5778 72.626 58.5932C72.626 58.5932 72.6337 58.5932 72.6337 58.6008C72.7104 58.6469 72.7794 58.6929 72.8485 58.7466C72.8715 58.7619 72.8868 58.7696 72.9022 58.7849C72.9098 58.7849 72.9098 58.7926 72.9098 58.7926C72.9559 58.8233 72.9942 58.854 73.0326 58.8847C73.0786 58.9154 73.1246 58.9537 73.163 58.9921C73.232 59.0458 73.3087 59.1148 73.3778 59.1762Z" fill="#009ADD"/>
<path d="M41.4426 58.3348L40.1185 56.2344L28.8065 57.728C28.7704 57.7326 28.7344 57.7372 28.6991 57.7425C28.6891 57.7441 28.6799 57.7456 28.6699 57.7471C28.6439 57.751 28.6178 57.7548 28.5925 57.7594C28.581 57.761 28.5695 57.7633 28.558 57.7656C28.5342 57.7694 28.5096 57.774 28.4858 57.7786C28.4736 57.7809 28.4605 57.7832 28.4475 57.7863C28.4252 57.7909 28.403 57.7947 28.3815 57.7993C28.3677 57.8024 28.3531 57.8054 28.3393 57.8085C28.3186 57.8131 28.2971 57.8177 28.2764 57.8223C28.2634 57.8254 28.2496 57.8285 28.2365 57.8315C28.2143 57.8369 28.1913 57.8423 28.169 57.8476C28.1575 57.8507 28.146 57.8538 28.1345 57.8561C28.1115 57.8622 28.0885 57.8676 28.0655 57.8737C28.0539 57.8768 28.0424 57.8799 28.0309 57.8829C28.0072 57.8891 27.9834 57.896 27.9596 57.9029C27.9496 57.9059 27.9396 57.9082 27.9289 57.9113C27.9036 57.9182 27.879 57.9259 27.8545 57.9336C27.8453 57.9366 27.8369 57.9389 27.8276 57.942C27.8008 57.9504 27.7739 57.9589 27.7479 57.9681C27.741 57.9704 27.7341 57.9727 27.7272 57.975C27.6949 57.9857 27.6627 57.9972 27.6305 58.0087L27.629 58.0095C27.3896 58.0947 27.1579 58.1959 26.9339 58.311C26.9324 58.3117 26.9309 58.3125 26.9309 58.3125C26.901 58.3279 26.8718 58.3432 26.8419 58.3593C26.8388 58.3608 26.8358 58.3631 26.8319 58.3647C26.8028 58.3808 26.7744 58.3961 26.746 58.4122C26.7445 58.413 26.7422 58.4145 26.7406 58.4153C26.7107 58.4322 26.6808 58.4498 26.6509 58.4667L26.6486 58.4682C26.3087 58.6692 25.9911 58.9055 25.7012 59.1725L26.2021 61.0373C26.9554 60.4896 27.8468 60.1252 28.8088 60.0025L41.4426 58.3348Z" fill="#27C1E6"/>
<path d="M32.5496 78.0168V82.1976C32.1814 82.0135 31.8209 81.814 31.468 81.6146C30.862 81.2771 30.2713 80.9165 29.6883 80.5406V78.0168C29.6883 75.3548 29.3354 72.7006 28.645 70.1307L26.1979 61.0403L25.6992 59.1762C25.7376 59.1378 25.7759 59.1071 25.8143 59.0765C25.845 59.0458 25.8757 59.0151 25.914 58.9921C25.9524 58.9537 25.9984 58.9154 26.0444 58.8847C26.0674 58.8693 26.0828 58.854 26.1058 58.8386C26.1211 58.8233 26.1365 58.8156 26.1518 58.8003C26.1748 58.7849 26.1979 58.7619 26.2285 58.7466C26.2976 58.6929 26.3666 58.6469 26.4433 58.6008C26.4433 58.5932 26.451 58.5932 26.451 58.5932C26.4663 58.5778 26.4894 58.5625 26.5124 58.5548C26.52 58.5471 26.5277 58.5395 26.5431 58.5318C26.5584 58.5241 26.5814 58.5088 26.5968 58.5011C26.6121 58.4934 26.6274 58.4781 26.6428 58.4704H26.6505C26.6735 58.4551 26.6965 58.4397 26.7272 58.4244C26.7502 58.4091 26.7732 58.3937 26.7962 58.386C26.7962 58.386 26.8039 58.386 26.8039 58.3784C26.8116 58.3707 26.8269 58.363 26.8346 58.363H26.8422L26.8499 58.3554C26.8576 58.3554 26.8653 58.3477 26.8729 58.34C26.8959 58.3247 26.9113 58.317 26.9343 58.3093C26.9496 58.3017 26.965 58.294 26.988 58.2863C27.0033 58.2786 27.0187 58.271 27.034 58.2633C27.0647 58.248 27.0954 58.2249 27.1337 58.2096C27.2335 58.1636 27.3409 58.1175 27.4483 58.0792C27.4713 58.0638 27.502 58.0562 27.525 58.0485L27.548 58.0408C27.571 58.0255 27.594 58.0178 27.6247 58.0102C27.6477 58.0025 27.6707 57.9948 27.6937 57.9871C27.7014 57.9795 27.7168 57.9795 27.7321 57.9718C27.7321 57.9718 27.7398 57.9718 27.7474 57.9718C27.7551 57.9641 27.7628 57.9641 27.7705 57.9641C27.7781 57.9565 27.7935 57.9565 27.8088 57.9488C27.8165 57.9488 27.8165 57.9411 27.8242 57.9411C27.8318 57.9411 27.8472 57.9411 27.8548 57.9334C27.8702 57.9258 27.8855 57.9258 27.9085 57.9258C27.9162 57.9181 27.9239 57.9104 27.9392 57.9104C27.9392 57.9104 27.9469 57.9028 27.9546 57.9028C27.9546 57.9028 27.9546 57.9028 27.9622 57.9028C27.9853 57.8951 28.0083 57.8874 28.0313 57.8797C28.0466 57.8797 28.0543 57.8721 28.0696 57.8721V57.8797L28.6757 60.0277L31.5064 70.1307C32.1968 72.7006 32.5496 75.3548 32.5496 78.0168Z" fill="#009ADD"/>
<path d="M49.5367 55.0044L45.0644 61.2672C44.5197 62.0297 43.4074 62.0857 42.7891 61.3815L38.4609 56.4527L49.5367 55.0044Z" fill="#D0D2D3"/>
<path d="M49.5371 55.0044L54.0094 61.2672C54.5541 62.0297 55.6664 62.0857 56.2847 61.3815L60.6121 56.4527L49.5371 55.0044Z" fill="#D0D2D3"/>
<path d="M34.8262 83.2944H64.3145C64.3068 83.3021 64.2914 83.3021 64.2838 83.3098C61.1999 84.6599 57.8859 85.5958 54.4262 86.0561C52.8383 86.2632 51.2196 86.3706 49.5703 86.3706C47.8903 86.3706 46.2333 86.2555 44.607 86.0407C41.1856 85.5805 37.9177 84.6446 34.8569 83.3098C34.8492 83.3021 34.8338 83.3021 34.8262 83.2944Z" fill="#D0D2D3"/>
<path d="M34.8262 83.2944H64.3145C64.3068 83.3021 64.2914 83.3021 64.2838 83.3098C61.1999 84.6599 57.8859 85.5958 54.4262 86.0561C52.8383 86.2632 51.2196 86.3706 49.5703 86.3706C47.8903 86.3706 46.2333 86.2555 44.607 86.0407C41.1856 85.5805 37.9177 84.6446 34.8569 83.3098C34.8492 83.3021 34.8338 83.3021 34.8262 83.2944Z" fill="#009ADD"/>
<path d="M35.7793 35.2112C35.7793 35.956 35.8246 36.6887 35.9059 37.4074C37.19 37.7511 38.5386 37.9383 39.931 37.9383C48.5458 37.9383 55.5289 30.9552 55.5289 22.3403C55.5289 22.2191 55.5228 22.0995 55.5197 21.979C53.7108 21.1544 51.681 20.7209 49.5369 20.7209C41.9385 20.7209 35.7793 26.1545 35.7793 35.2112Z" fill="#F6CA14"/>
<path d="M35.7949 34.4855C37.4389 35.2396 39.2662 35.663 41.1939 35.663C48.3574 35.663 54.1637 29.8559 54.1637 22.6932C54.1637 22.2667 54.1415 21.8463 54.1016 21.4305C52.6724 20.9649 51.1374 20.7209 49.5372 20.7209C42.1444 20.7209 36.1163 25.8653 35.7949 34.4855Z" fill="#0099DC"/>
<path d="M49.5372 22.9962C51.1374 22.9962 52.6732 23.2402 54.1016 23.7058C54.1054 23.748 54.107 23.791 54.1108 23.8332C54.1438 23.4573 54.1637 23.0776 54.1637 22.6932C54.1637 22.2667 54.1415 21.8463 54.1016 21.4305C52.6724 20.9649 51.1374 20.7209 49.5372 20.7209C42.1444 20.7209 36.1163 25.8661 35.7949 34.4855C35.8655 34.5177 35.9391 34.5461 36.0105 34.5775C37.1857 27.2806 42.7926 22.9962 49.5372 22.9962Z" fill="#1CADE3"/>
<path d="M51.042 20.7954C50.9514 21.4145 50.9023 22.0481 50.9023 22.6933C50.9023 29.6595 56.395 35.3409 63.2853 35.6485C63.2884 35.5027 63.2945 35.3585 63.2945 35.212C63.2945 26.7613 57.9315 21.4666 51.042 20.7954Z" fill="#1CADE3"/>
<path d="M51.042 23.0707C57.4152 23.692 62.4783 28.271 63.2024 35.6423C63.2301 35.6438 63.2577 35.6469 63.2853 35.6484C63.2884 35.5027 63.2945 35.3585 63.2945 35.212C63.2945 26.7613 57.9315 21.4674 51.042 20.7961C50.9514 21.4152 50.9023 22.0489 50.9023 22.694C50.9023 23.0783 50.9215 23.4573 50.9545 23.8332C50.9768 23.5762 51.0051 23.3223 51.042 23.0707Z" fill="#23C1E6"/>
<path d="M54.5622 60.0149C54.9542 60.4061 55.571 60.4575 56.0236 60.1376L60.1384 57.2226C60.6892 56.8275 60.7751 56.042 60.3225 55.538L57.5908 52.494C57.2686 52.135 56.7546 52.0184 56.3089 52.2025L49.5391 55.0048L54.5622 60.0149Z" fill="white"/>
<path d="M44.5123 60.0144C44.1203 60.4056 43.5035 60.457 43.0509 60.1372L38.9361 57.2221C38.3853 56.827 38.2993 56.0415 38.7519 55.5375L41.4844 52.4935C41.8066 52.1345 42.3206 52.0179 42.7663 52.202L49.5362 55.0043L44.5123 60.0144Z" fill="white"/>
<path d="M50.9689 43.3467L49.8988 44.4168C49.7001 44.6155 49.3779 44.6155 49.1792 44.4168L48.1091 43.3467C47.7884 43.026 48.0155 42.4783 48.4689 42.4783H50.6092C51.0625 42.4783 51.2896 43.026 50.9689 43.3467Z" fill="#F6CA14"/>
<path d="M67.5095 81.3413H31.5283C29.2131 81.3413 27.3359 83.2185 27.3359 85.5336V116.361C27.3359 118.676 29.2123 120.553 31.5283 120.553H51.7512L62.7487 131.55C63.6286 132.431 65.1337 131.807 65.1337 130.562V120.553H67.5095C69.8247 120.553 71.7011 118.676 71.7011 116.361V85.5336C71.7018 83.2177 69.8247 81.3413 67.5095 81.3413Z" fill="#E43D91"/>
<path d="M67.5095 77.8477H31.5283C29.2131 77.8477 27.3359 79.7248 27.3359 82.04V112.867C27.3359 115.182 29.2123 117.059 31.5283 117.059H52.4493L62.748 127.358C63.6278 128.238 65.133 127.615 65.133 126.37V117.059H67.5087C69.8239 117.059 71.7003 115.182 71.7003 112.867V82.04C71.7018 79.7248 69.8247 77.8477 67.5095 77.8477Z" fill="#EF5A9D"/>
<path d="M51.3182 107.832C51.8399 108.38 52.1176 109.08 52.1176 109.856C52.1176 110.635 51.8314 111.335 51.2906 111.878C50.9147 112.256 50.2442 112.711 49.194 112.711C48.1139 112.711 47.4419 112.241 47.0691 111.848C46.5567 111.309 46.2859 110.62 46.2859 109.856C46.2859 109.096 46.5482 108.406 47.0446 107.86C47.4197 107.447 48.0971 106.955 49.194 106.955C50.0387 106.954 50.7736 107.258 51.3182 107.832ZM54.916 86.8964C53.5973 85.5662 51.8245 84.8911 49.6451 84.8911C47.5409 84.8911 45.7619 85.5347 44.3589 86.8043C42.9113 88.113 42.1641 89.8513 42.1388 91.9717C42.1334 92.4197 42.3076 92.8508 42.6221 93.1699C42.9374 93.4883 43.367 93.6678 43.8142 93.6678H45.6024C46.5175 93.6678 47.2624 92.9344 47.2785 92.02C47.2939 91.0833 47.6299 90.6637 47.88 90.4305C48.2988 90.0401 48.8757 89.8506 49.6451 89.8506C50.594 89.8506 50.9907 90.1582 51.2062 90.3906C51.576 90.788 51.7562 91.3795 51.7562 92.198C51.7562 92.6421 51.7048 93.0288 51.6044 93.3464C51.5008 93.6709 51.3573 93.9593 51.1663 94.2301C51.0405 94.4096 50.6493 94.8875 49.4472 96.0704C48.2827 97.2157 47.5271 98.2276 47.1366 99.165C46.7515 100.092 46.5513 101.226 46.5267 102.632C46.5191 103.082 46.6917 103.515 47.007 103.836C47.3223 104.157 47.7534 104.337 48.2029 104.337H49.9919C50.917 104.337 51.668 103.587 51.668 102.661C51.668 101.357 52.0278 100.422 52.8241 99.7511C54.356 98.3434 55.3863 97.1091 55.9731 95.9776C56.5868 94.7947 56.8975 93.5113 56.8975 92.1658C56.8967 89.9963 56.2301 88.2227 54.916 86.8964Z" fill="#E43D91"/>
<path d="M51.3182 106.156C51.8399 106.704 52.1176 107.404 52.1176 108.18C52.1176 108.959 51.8314 109.659 51.2906 110.202C50.9147 110.58 50.2442 111.035 49.194 111.035C48.1139 111.035 47.4419 110.565 47.0691 110.172C46.5567 109.633 46.2859 108.944 46.2859 108.18C46.2859 107.42 46.5482 106.73 47.0446 106.184C47.4197 105.771 48.0971 105.279 49.194 105.279C50.0387 105.279 50.7736 105.582 51.3182 106.156ZM54.916 85.2211C53.5973 83.8909 51.8245 83.2158 49.6451 83.2158C47.5409 83.2158 45.7619 83.8594 44.3589 85.129C42.9113 86.4377 42.1641 88.176 42.1388 90.2964C42.1334 90.7444 42.3076 91.1755 42.6221 91.4946C42.9374 91.813 43.367 91.9925 43.8142 91.9925H45.6024C46.5175 91.9925 47.2624 91.2591 47.2785 90.3447C47.2939 89.4081 47.6299 88.9884 47.88 88.7552C48.2988 88.3648 48.8757 88.1753 49.6451 88.1753C50.594 88.1753 50.9907 88.4829 51.2062 88.7153C51.576 89.1127 51.7562 89.7042 51.7562 90.5227C51.7562 90.9669 51.7048 91.3535 51.6044 91.6711C51.5008 91.9956 51.3573 92.284 51.1663 92.5548C51.0405 92.7343 50.6493 93.2122 49.4472 94.3951C48.2827 95.5404 47.5271 96.5523 47.1366 97.4897C46.7515 98.4164 46.5513 99.5502 46.5267 100.957C46.5191 101.407 46.6917 101.84 47.007 102.161C47.3223 102.481 47.7534 102.662 48.2029 102.662H49.9919C50.917 102.662 51.668 101.911 51.668 100.986C51.668 99.6822 52.0278 98.7463 52.8241 98.0758C54.356 96.6681 55.3863 95.4338 55.9731 94.3023C56.5868 93.1194 56.8975 91.8368 56.8975 90.4905C56.8967 88.3203 56.2301 86.5474 54.916 85.2211Z" fill="#FEDE3A"/>
<path d="M47.2785 90.3448C47.2939 89.4081 47.6299 88.9885 47.88 88.7553C48.2988 88.3648 48.8757 88.1754 49.6451 88.1754C50.594 88.1754 50.9907 88.483 51.2062 88.7154C51.4502 88.9778 51.6036 89.3337 51.6857 89.7756C51.7271 89.5409 51.7562 89.2892 51.7562 89.0046C51.7562 88.1861 51.576 87.5939 51.2062 87.1973C50.9899 86.9656 50.594 86.6572 49.6451 86.6572C48.8757 86.6572 48.2988 86.8467 47.88 87.2372C47.6299 87.4711 47.2939 87.89 47.2785 88.8267C47.2632 89.7411 46.5175 90.4744 45.6024 90.4744H43.8142C43.367 90.4744 42.9374 90.2949 42.6221 89.9766C42.428 89.7802 42.2961 89.5393 42.2178 89.28C42.1741 89.6099 42.1426 89.9459 42.1388 90.2972C42.1334 90.7452 42.3076 91.1764 42.6221 91.4955C42.9374 91.8138 43.367 91.9933 43.8142 91.9933H45.6024C46.5175 91.9926 47.2632 91.2592 47.2785 90.3448Z" fill="#E7AD27"/>
<path d="M55.9728 92.7843C55.3859 93.9158 54.3557 95.1494 52.8237 96.5578C52.0275 97.2283 51.6677 98.1642 51.6677 99.4675C51.6677 100.393 50.9174 101.144 49.9915 101.144H48.2026C47.753 101.144 47.3219 100.963 47.0066 100.643C46.7987 100.431 46.6599 100.167 46.5862 99.8848C46.554 100.225 46.5325 100.58 46.5256 100.958C46.518 101.408 46.6906 101.841 47.0059 102.162C47.3211 102.482 47.7523 102.663 48.2018 102.663H49.9907C50.9159 102.663 51.6669 101.912 51.6669 100.986C51.6669 99.6831 52.0267 98.7472 52.823 98.0767C54.3549 96.669 55.3852 95.4347 55.972 94.3032C56.5857 93.1203 56.8964 91.8377 56.8964 90.4914C56.8964 90.1983 56.8818 89.9137 56.858 89.6353C56.7721 90.7391 56.4845 91.7978 55.9728 92.7843Z" fill="#E7AD27"/>
<path d="M51.2899 108.683C50.914 109.061 50.2435 109.516 49.1933 109.516C48.1132 109.516 47.4412 109.046 47.0684 108.653C46.7324 108.299 46.5115 107.877 46.3918 107.416C46.3289 107.661 46.2852 107.914 46.2852 108.18C46.2852 108.944 46.5559 109.633 47.0684 110.172C47.4412 110.565 48.1132 111.035 49.1933 111.035C50.2435 111.035 50.914 110.58 51.2899 110.202C51.8307 109.659 52.1168 108.959 52.1168 108.18C52.1168 107.913 52.0723 107.661 52.0087 107.416C51.8836 107.89 51.6481 108.323 51.2899 108.683Z" fill="#E7AD27"/>
</svg>
