<svg width="600" height="183" viewBox="0 0 600 183" fill="none" xmlns="http://www.w3.org/2000/svg">
<mask id="mask0_20090_2" style="mask-type:luminance" maskUnits="userSpaceOnUse" x="508" y="0" width="59" height="35">
<path d="M508.559 0H566.36V34.1552H508.559V0Z" fill="white"/>
</mask>
<g mask="url(#mask0_20090_2)">
<path d="M526.813 0C528.783 0.0821022 531.287 0.75262 533.367 2.51785C541.072 9.07248 548.748 15.6271 556.439 22.2091C559.367 24.7406 562.254 27.2859 565.142 29.8585C565.867 30.5016 567.222 31.049 566.715 32.1847C566.154 33.4573 564.854 33.0605 563.719 32.7047C556.89 30.6248 550.035 28.6406 543.206 26.5332C534.23 23.7554 525.267 20.9228 516.29 18.1176C515.428 17.8439 514.579 17.4881 513.786 17.0776C507.176 13.465 506.834 9.16827 512.855 4.58414C516.769 1.61471 521.216 0.109472 526.813 0Z" fill="#FF823F"/>
<path d="M526.813 0C528.783 0.0821022 531.287 0.75262 533.367 2.51785C541.072 9.07248 548.748 15.6271 556.439 22.2091C559.367 24.7406 562.254 27.2859 565.142 29.8585C565.867 30.5016 567.222 31.049 566.715 32.1847C566.154 33.4573 564.854 33.0605 563.719 32.7047C556.89 30.6248 550.035 28.6406 543.206 26.5332C534.23 23.7554 525.267 20.9228 516.29 18.1176C515.428 17.8439 514.579 17.4881 513.786 17.0776C507.176 13.465 506.834 9.16827 512.855 4.58414C516.769 1.61471 521.216 0.109472 526.813 0Z" fill="#FF823F"/>
</g>
<path d="M258.8 171.627C252.451 171.627 246.006 170.477 239.478 168.178C232.979 165.852 227.012 162.321 221.58 157.614C216.134 152.879 211.796 146.941 208.553 139.825C205.296 132.682 203.681 124.307 203.681 114.701C203.681 101.975 206.5 90.8773 212.165 81.4217C217.817 71.9797 225.302 64.6178 234.607 59.3631C243.912 54.0811 253.983 51.4264 264.821 51.4264C274.592 51.4264 282.939 53.3285 289.836 57.1189C296.732 60.9231 302.069 65.9177 305.873 72.1166C309.664 78.3291 311.634 85.1437 311.785 92.5878H220.868C220.43 96.0225 220.211 99.594 220.211 103.316C220.211 113.825 222.25 123.158 226.342 131.286C230.461 139.428 236.276 145.764 243.803 150.279C251.315 154.768 260.114 157.012 270.185 157.012C279.162 157.012 286.989 155.151 293.667 151.429C300.345 147.707 306.311 142.822 311.566 136.76L313.646 138.894C309.773 144.3 305.121 149.513 299.688 154.549C294.283 159.585 288.207 163.69 281.461 166.864C274.701 170.039 267.147 171.627 258.8 171.627ZM221.58 89.5773H293.174C292.408 84.3227 290.506 79.1091 287.482 73.9229C284.444 68.7093 280.421 64.3714 275.385 60.8957C270.35 57.3926 264.274 55.6411 257.158 55.6411C247.224 55.4632 239.273 58.6379 233.293 65.1651C227.341 71.665 223.441 79.807 221.58 89.5773Z" fill="#061C27"/>
<path d="M330.87 81.4217C328.243 72.3082 325.999 66.082 324.138 62.7567C322.277 59.4042 320.101 57.1737 317.624 56.079V53.0685H351.068V56.079C347.524 57.1737 345.786 59.4042 345.868 62.7567C345.936 66.082 347.291 72.3082 349.918 81.4217L369.678 150.498L403.176 53.0685H411.989L445.706 150.28L465.739 81.4217C470.228 66.0956 468.435 57.6526 460.375 56.079V53.0685H484.076V56.079C480.819 57.1737 478.192 59.4042 476.194 62.7567C474.182 66.082 471.843 72.3082 469.188 81.4217L443.626 169.328H433.172L399.947 72.8282L366.667 169.328H356.432L330.87 81.4217Z" fill="#061C27"/>
<path d="M578.966 169.328C574.286 169.328 571.96 167.015 571.96 162.376V120.503C569.661 129.959 566.021 138.566 561.068 146.339C556.1 154.084 550.312 160.228 543.716 164.785C537.148 169.341 529.978 171.627 522.205 171.627C516.472 171.627 511.121 170.477 506.168 168.178C501.2 165.852 497.205 162.431 494.18 157.943C491.184 153.454 489.692 147.871 489.692 141.193C489.692 133.133 492.073 126.551 496.862 121.434C501.679 116.33 508.083 112.156 516.075 108.899C524.066 105.615 532.619 102.741 541.746 100.251L571.96 92.1499C571.331 80.847 568.238 72.4997 562.655 67.1356C557.099 61.7715 549.368 59.0894 539.447 59.0894C532.468 59.0894 525.681 60.7726 519.085 64.1251C512.517 67.4503 506.277 72.6913 500.366 79.8343L498.286 77.9733C504.963 69.7356 512.517 63.2494 520.946 58.5421C529.403 53.8074 538.681 51.4264 548.752 51.4264C562.833 51.4264 573.219 55.1211 579.897 62.4831C586.575 69.8587 589.914 80.1354 589.914 93.2994V139.825C589.914 149.281 590.57 155.794 591.884 159.366C593.198 162.91 595.62 165.222 599.164 166.317V169.328H578.966ZM507.098 134.68C507.098 142.274 509.37 148.063 513.94 152.031C518.538 155.972 524.176 157.943 530.853 157.943C537.011 157.943 542.622 156.218 547.657 152.743C552.72 149.24 557.031 144.696 560.575 139.113C564.147 133.53 566.938 127.496 568.95 120.996C570.948 114.469 571.96 108.174 571.96 102.112V95.1604L542.676 103.042C536.943 104.616 531.319 106.682 525.818 109.228C520.303 111.786 515.801 115.084 512.298 119.135C508.822 123.158 507.098 128.33 507.098 134.68Z" fill="#061C27"/>
<mask id="mask1_20090_2" style="mask-type:luminance" maskUnits="userSpaceOnUse" x="0" y="17" width="166" height="166">
<path d="M0 17H165.713V182.727H0V17Z" fill="white"/>
</mask>
<g mask="url(#mask1_20090_2)">
<mask id="mask2_20090_2" style="mask-type:luminance" maskUnits="userSpaceOnUse" x="0" y="17" width="166" height="166">
<path d="M82.8565 17C37.0973 17 0 54.0973 0 99.8565C0 145.629 37.0973 182.727 82.8565 182.727C128.616 182.727 165.713 145.629 165.713 99.8565C165.713 54.0973 128.616 17 82.8565 17Z" fill="white"/>
</mask>
<g mask="url(#mask2_20090_2)">
<mask id="mask3_20090_2" style="mask-type:luminance" maskUnits="userSpaceOnUse" x="-1" y="15" width="170" height="169">
<path d="M168.135 15.3579H-0.0134277V183.507H168.135V15.3579Z" fill="white"/>
</mask>
<g mask="url(#mask3_20090_2)">
<mask id="mask4_20090_2" style="mask-type:luminance" maskUnits="userSpaceOnUse" x="0" y="17" width="166" height="166">
<path d="M0 17H165.713V182.727H0V17Z" fill="white"/>
</mask>
<g mask="url(#mask4_20090_2)">
<mask id="mask5_20090_2" style="mask-type:luminance" maskUnits="userSpaceOnUse" x="0" y="17" width="166" height="166">
<path d="M82.8565 17C37.0973 17 0 54.0973 0 99.8565C0 145.629 37.0973 182.727 82.8565 182.727C128.616 182.727 165.713 145.629 165.713 99.8565C165.713 54.0973 128.616 17 82.8565 17Z" fill="white"/>
</mask>
<g mask="url(#mask5_20090_2)">
<path d="M0 17H165.713V182.727H0V17Z" fill="#FF823F"/>
</g>
</g>
</g>
</g>
</g>
<mask id="mask6_20090_2" style="mask-type:luminance" maskUnits="userSpaceOnUse" x="65" y="80" width="71" height="70">
<path d="M65.9585 80.453H135.307V149.817H65.9585V80.453Z" fill="white"/>
</mask>
<g mask="url(#mask6_20090_2)">
<mask id="mask7_20090_2" style="mask-type:luminance" maskUnits="userSpaceOnUse" x="65" y="80" width="71" height="70">
<path d="M100.625 80.453C81.4785 80.453 65.9585 95.973 65.9585 115.135C65.9585 134.281 81.4785 149.817 100.625 149.817C119.787 149.817 135.307 134.281 135.307 115.135C135.307 95.973 119.787 80.453 100.625 80.453Z" fill="white"/>
</mask>
<g mask="url(#mask7_20090_2)">
<mask id="mask8_20090_2" style="mask-type:luminance" maskUnits="userSpaceOnUse" x="62" y="77" width="76" height="75">
<path d="M137.351 77.0725H62.6086V151.814H137.351V77.0725Z" fill="white"/>
</mask>
<g mask="url(#mask8_20090_2)">
<mask id="mask9_20090_2" style="mask-type:luminance" maskUnits="userSpaceOnUse" x="65" y="80" width="71" height="70">
<path d="M65.9585 80.4531H135.307V149.817H65.9585V80.4531Z" fill="white"/>
</mask>
<g mask="url(#mask9_20090_2)">
<mask id="mask10_20090_2" style="mask-type:luminance" maskUnits="userSpaceOnUse" x="65" y="80" width="71" height="70">
<path d="M100.625 80.4531C81.4785 80.4531 65.9585 95.9731 65.9585 115.135C65.9585 134.281 81.4785 149.817 100.625 149.817C119.787 149.817 135.307 134.281 135.307 115.135C135.307 95.9731 119.787 80.4531 100.625 80.4531Z" fill="white"/>
</mask>
<g mask="url(#mask10_20090_2)">
<path d="M65.9585 80.4531H135.307V149.817H65.9585V80.4531Z" fill="#061C27"/>
</g>
</g>
</g>
</g>
</g>
</svg>
